<svg width="43" height="38" viewBox="0 0 43 38" fill="none" xmlns="http://www.w3.org/2000/svg">
    <g id="Logo">
        <g id="&#208;&#161;&#208;&#187;&#208;&#190;&#208;&#185; 1">
            <path id="Vector"
                d="M38.126 19C38.126 22.7578 37.008 26.4313 34.9133 29.5558C32.8187 32.6804 29.8414 35.1156 26.3581 36.5537C22.8748 37.9918 19.0419 38.368 15.344 37.6349C11.6461 36.9018 8.24944 35.0922 5.58344 32.435C2.91743 29.7778 1.10185 26.3923 0.366299 22.7067C-0.369252 19.0211 0.00825974 15.2008 1.45109 11.729C2.89393 8.25722 5.33728 5.28982 8.47218 3.20208C11.6071 1.11433 15.2927 0 19.063 0C24.1188 0 28.9676 2.00178 32.5426 5.56497C36.1176 9.12816 38.126 13.9609 38.126 19Z"
                fill="url(#paint0_linear_182_2672)" />
            <path id="Vector_2"
                d="M10.9008 11.55C11.3663 11.4521 11.8408 11.4036 12.3166 11.4054C13.2025 11.4007 14.0828 11.5456 14.9202 11.8339C16.7836 12.4697 18.1717 13.6443 19.0848 15.3579C19.6431 16.3626 19.9389 17.4912 19.9448 18.6398C19.9443 19.352 19.8356 20.0601 19.6223 20.7398C19.0489 22.6056 17.9023 24.0013 16.1823 24.927C15.1826 25.4695 14.0632 25.7556 12.925 25.7595C12.1953 25.7555 11.4704 25.6413 10.775 25.421C9.27001 24.9624 7.97033 23.9892 6.87598 22.5013L8.64436 20.5459C9.54019 21.8659 10.5005 22.6784 11.5254 22.9834C11.9681 23.1232 12.4295 23.1954 12.8938 23.1977C13.6215 23.1917 14.3365 23.0077 14.9761 22.662C15.5078 22.3897 15.9776 22.0114 16.3565 21.5506C16.7354 21.0899 17.0153 20.5564 17.1788 19.9834C17.3201 19.5427 17.3926 19.0831 17.3938 18.6205C17.387 17.8944 17.1997 17.1814 16.8488 16.5451C16.2794 15.4579 15.3066 14.6352 14.1376 14.2522C13.5765 14.0612 12.9868 13.9673 12.394 13.9747C11.5297 13.9747 10.4238 14.189 9.07651 14.6176L7.5586 13.3115L9.73763 7.31135V6.3374H16.8326V8.83495H11.8565L10.9008 11.55Z"
                fill="white" />
            <path id="Vector_3"
                d="M32.1897 13.6318C30.1831 15.8719 28.6315 17.7683 27.535 19.3212C26.4385 20.8741 25.849 22.9813 25.7666 25.6428H23.2124C23.3092 22.352 23.9792 19.8402 25.2227 18.1073C26.605 16.203 28.0896 14.3745 29.6699 12.63C31.3899 10.7114 32.3141 9.44639 32.4424 8.83495H23.2371V6.3374H35.2836C35.2263 8.95959 34.195 11.3911 32.1897 13.6318Z"
                fill="white" />
            <path id="Vector_4" d="M43.0006 6.3374V25.6438H40.4948V9.59461H38.6426L41.185 6.3374H43.0006Z"
                fill="white" />
            <path id="Vector_5"
                d="M14.9791 18.6485C14.9791 19.0999 14.8448 19.5413 14.5933 19.9167C14.3417 20.2921 13.9841 20.5847 13.5657 20.7576C13.1473 20.9305 12.6868 20.9759 12.2426 20.8881C11.7983 20.8003 11.3901 20.5831 11.0696 20.2641C10.7491 19.9451 10.5306 19.5386 10.4419 19.0959C10.3531 18.6532 10.398 18.1942 10.5709 17.777C10.7438 17.3597 11.0369 17.0029 11.4132 16.7516C11.7895 16.5003 12.2321 16.3659 12.6851 16.3652C13.2926 16.3652 13.8753 16.6058 14.3049 17.034C14.7345 17.4622 14.9759 18.0429 14.9759 18.6485"
                fill="white" />
            <path id="Vector_6"
                d="M8.57946 32.0768C8.61638 32.1144 8.66057 32.1441 8.70935 32.1642C8.75813 32.1843 8.81049 32.1943 8.86326 32.1936C8.9425 32.1934 9.01993 32.1699 9.0858 32.126C9.15167 32.0821 9.20305 32.0197 9.23349 31.9468C9.26393 31.8739 9.27207 31.7936 9.25688 31.7161C9.24169 31.6386 9.20386 31.5673 9.14813 31.5111C9.04079 31.4177 8.9249 31.3344 8.80198 31.2625C8.61636 31.17 8.44392 31.0533 8.28921 30.9154C8.16283 30.7888 8.07697 30.6278 8.04249 30.4526C8.00802 30.2773 8.02648 30.0959 8.09554 29.9311C8.16461 29.7664 8.28116 29.6258 8.43046 29.5271C8.57975 29.4284 8.75507 29.3761 8.93421 29.3768C9.04969 29.3736 9.16459 29.3942 9.27169 29.4374C9.3788 29.4805 9.47581 29.5452 9.55663 29.6275C9.66914 29.735 9.74794 29.8727 9.78346 30.0239L9.13846 30.2104C9.13059 30.1721 9.11525 30.1357 9.09331 30.1032C9.07261 30.0839 9.04828 30.0688 9.02171 30.0589C8.99514 30.0489 8.96686 30.0444 8.93851 30.0454C8.9075 30.0448 8.8767 30.0506 8.84803 30.0624C8.81936 30.0742 8.79344 30.0917 8.77188 30.1139C8.74949 30.1354 8.73174 30.1612 8.71973 30.1898C8.70771 30.2183 8.70168 30.2491 8.70201 30.28C8.70144 30.3105 8.70716 30.3408 8.71881 30.369C8.73046 30.3972 8.74779 30.4227 8.76973 30.444C8.85438 30.5168 8.94419 30.5834 9.03848 30.6432C9.24898 30.7497 9.44422 30.8837 9.61898 31.0418C9.71972 31.139 9.79952 31.2556 9.85349 31.3846C9.90746 31.5135 9.93448 31.6521 9.93288 31.7918C9.93515 31.9326 9.90869 32.0723 9.85509 32.2025C9.8015 32.3327 9.7219 32.4507 9.62113 32.5493C9.52208 32.649 9.4042 32.7281 9.27431 32.7821C9.14441 32.8361 9.00507 32.8638 8.86433 32.8638C8.7236 32.8638 8.58425 32.8361 8.45436 32.7821C8.32446 32.7281 8.20658 32.649 8.10753 32.5493C7.96181 32.4027 7.86304 32.2163 7.82373 32.0136L8.49238 31.8679C8.50184 31.9447 8.53317 32.0172 8.58268 32.0768"
                fill="white" />
            <path id="Vector_7"
                d="M11.7901 32.0362C11.8976 32.1348 12.1062 32.1841 12.4007 32.1841C12.5525 32.1864 12.7032 32.158 12.8437 32.1006C12.9841 32.0431 13.1114 31.9578 13.2177 31.8498C13.2457 31.8198 13.3026 31.7533 13.3886 31.6505L14.0573 31.8883C13.949 32.0452 13.8305 32.1948 13.7025 32.3362C13.4514 32.5851 13.1334 32.7563 12.7869 32.8293C12.4404 32.9023 12.0801 32.874 11.7493 32.7478C11.4186 32.6216 11.1314 32.4028 10.9225 32.1178C10.7135 31.8328 10.5916 31.4937 10.5714 31.1413C10.5511 30.7889 10.6335 30.4381 10.8086 30.1313C10.9836 29.8244 11.2439 29.5744 11.558 29.4115C11.8722 29.2485 12.2269 29.1795 12.5795 29.2127C12.9321 29.2459 13.2676 29.3799 13.5456 29.5987C13.5993 29.6437 13.652 29.6919 13.7036 29.7433C13.7251 29.7647 13.7864 29.8322 13.8874 29.9469L13.552 30.2844L11.7901 32.0362ZM12.9081 29.9769C12.8329 29.919 12.663 29.889 12.4007 29.889C12.0954 29.8899 11.803 30.0114 11.5875 30.2269C11.3721 30.4425 11.2512 30.7344 11.2515 31.0387C11.2515 31.298 11.2806 31.4673 11.3386 31.5444L12.9081 29.9769Z"
                fill="white" />
            <path id="Vector_8"
                d="M15.5004 29.9244C15.7498 29.5865 16.0565 29.408 16.4206 29.3887V30.0808C16.2042 30.0828 15.9967 30.1667 15.8401 30.3155C15.7354 30.4144 15.6514 30.533 15.5931 30.6645C15.5348 30.7961 15.5033 30.9378 15.5004 31.0816V32.7862H14.835V29.4765H15.5036L15.5004 29.9244Z"
                fill="white" />
            <path id="Vector_9"
                d="M18.5754 32.7884L16.9897 29.4766H17.7455L18.7431 31.627L19.745 29.4766H20.5007L18.9119 32.7884H18.5754Z"
                fill="white" />
            <path id="Vector_10"
                d="M21.87 28.2498C21.9139 28.2932 21.9488 28.3449 21.9726 28.4018C21.9963 28.4587 22.0086 28.5197 22.0086 28.5814C22.0086 28.6431 21.9963 28.7041 21.9726 28.761C21.9488 28.8179 21.9139 28.8696 21.87 28.913C21.8263 28.9565 21.7743 28.9909 21.7171 29.0141C21.6598 29.0372 21.5985 29.0488 21.5368 29.048C21.4756 29.0487 21.415 29.0371 21.3585 29.0139C21.302 28.9907 21.2507 28.9564 21.2078 28.913C21.1635 28.8698 21.1283 28.8182 21.1043 28.7613C21.0802 28.7043 21.0679 28.6432 21.0679 28.5814C21.0679 28.5196 21.0802 28.4585 21.1043 28.4015C21.1283 28.3446 21.1635 28.293 21.2078 28.2498C21.2507 28.2064 21.302 28.1721 21.3585 28.1489C21.415 28.1257 21.4756 28.1141 21.5368 28.1148C21.5985 28.114 21.6598 28.1255 21.7171 28.1487C21.7743 28.1719 21.8263 28.2063 21.87 28.2498ZM21.87 32.7884H21.2024V29.4766H21.87V32.7884Z"
                fill="white" />
            <path id="Vector_11"
                d="M25.5286 31.6527L26.1972 31.8905C26.0889 32.0474 25.9704 32.197 25.8425 32.3384C25.585 32.5948 25.2571 32.7694 24.9001 32.84C24.5432 32.9107 24.1732 32.8743 23.837 32.7354C23.5008 32.5966 23.2134 32.3614 23.0112 32.0598C22.8091 31.7582 22.7012 31.4036 22.7012 31.0409C22.7012 30.6781 22.8091 30.3235 23.0112 30.0219C23.2134 29.7203 23.5008 29.4852 23.837 29.3463C24.1732 29.2074 24.5432 29.171 24.9001 29.2417C25.2571 29.3124 25.585 29.4869 25.8425 29.7433C25.9698 29.883 26.0882 30.0305 26.1972 30.1848L25.5286 30.4291C25.4426 30.3241 25.3845 30.2566 25.3544 30.2266C25.1934 30.0672 24.9886 29.9589 24.7659 29.9153C24.5432 29.8718 24.3126 29.8949 24.103 29.9818C23.8935 30.0687 23.7145 30.2156 23.5886 30.4037C23.4627 30.5919 23.3955 30.8131 23.3955 31.0393C23.3955 31.2655 23.4627 31.4866 23.5886 31.6748C23.7145 31.863 23.8935 32.0098 24.103 32.0967C24.3126 32.1836 24.5432 32.2068 24.7659 32.1632C24.9886 32.1196 25.1934 32.0113 25.3544 31.8519C25.3824 31.8219 25.4393 31.7555 25.5253 31.6527"
                fill="white" />
            <path id="Vector_12"
                d="M28.0037 32.0359C28.117 32.1345 28.3205 32.1838 28.6143 32.1838C28.7662 32.1863 28.9169 32.158 29.0574 32.1005C29.1978 32.043 29.3251 31.9576 29.4313 31.8495C29.4593 31.8195 29.5163 31.7531 29.6033 31.6502L30.2709 31.8881C30.1626 32.0449 30.0441 32.1946 29.9162 32.336C29.6649 32.5846 29.347 32.7556 29.0006 32.8285C28.6542 32.9013 28.2941 32.873 27.9635 32.7468C27.6329 32.6206 27.3459 32.4019 27.1369 32.117C26.928 31.8322 26.8061 31.4932 26.7857 31.141C26.7654 30.7887 26.8476 30.438 27.0224 30.1312C27.1972 29.8243 27.4572 29.5743 27.7711 29.4112C28.085 29.248 28.4395 29.1787 28.792 29.2116C29.1445 29.2444 29.48 29.378 29.7581 29.5963C29.8119 29.6413 29.8646 29.6895 29.9162 29.7409C29.9377 29.7623 29.9989 29.8298 30.1 29.9445L29.7646 30.282L28.0037 32.0359ZM29.1217 29.9766C29.0465 29.9188 28.8777 29.8888 28.6143 29.8888C28.3091 29.8896 28.0166 30.0112 27.8012 30.2267C27.5857 30.4422 27.4649 30.7342 27.4652 31.0384C27.4652 31.2977 27.4942 31.467 27.5522 31.5442L29.1217 29.9766Z"
                fill="white" />
        </g>
    </g>
    <defs>
        <linearGradient id="paint0_linear_182_2672" x1="0" y1="0" x2="40.9636" y2="3.35506"
            gradientUnits="userSpaceOnUse">
            <stop stop-color="#FDC70D" />
            <stop offset="1" stop-color="#FDAB0D" />
        </linearGradient>
    </defs>
</svg>