<svg aria-hidden="true" style="position: absolute; width: 0; height: 0; overflow: hidden;" version="1.1"
    xmlns="http://www.w3.org/2000/svg" xmlns:xlink="http://www.w3.org/1999/xlink">
    <defs>
        <symbol id="icon-map-pin" viewBox="0 0 32 32">
            <path fill="#fff" style="fill: var(--color1, #fff)"
                d="M16 8.25c-0.939 0-1.858 0.279-2.639 0.8s-1.39 1.264-1.749 2.132c-0.36 0.868-0.454 1.823-0.27 2.744s0.636 1.768 1.3 2.432c0.664 0.664 1.511 1.117 2.432 1.3s1.876 0.089 2.744-0.27c0.868-0.36 1.61-0.968 2.132-1.749s0.801-1.7 0.801-2.639c0-1.26-0.5-2.468-1.391-3.359s-2.099-1.391-3.359-1.391zM16 16.25c-0.643 0-1.271-0.191-1.806-0.548s-0.951-0.865-1.197-1.458c-0.246-0.594-0.31-1.247-0.185-1.878s0.435-1.21 0.889-1.664c0.454-0.455 1.034-0.764 1.664-0.889s1.284-0.061 1.878 0.185c0.594 0.246 1.101 0.663 1.458 1.197s0.548 1.163 0.548 1.806c0 0.862-0.342 1.689-0.952 2.298s-1.436 0.952-2.298 0.952zM16 2.25c-2.85 0.003-5.582 1.137-7.598 3.152s-3.149 4.748-3.152 7.598c0 3.864 1.793 7.968 5.184 11.868 1.531 1.769 3.253 3.362 5.136 4.75 0.126 0.088 0.276 0.136 0.43 0.136s0.304-0.047 0.43-0.136c1.883-1.388 3.606-2.981 5.136-4.75 3.391-3.9 5.184-8 5.184-11.868-0.003-2.85-1.137-5.582-3.152-7.598s-4.748-3.149-7.598-3.152zM16 28.064c-1.875-1.448-9.25-7.611-9.25-15.064 0-2.453 0.975-4.806 2.709-6.541s4.087-2.709 6.541-2.709c2.453 0 4.806 0.975 6.541 2.709s2.709 4.087 2.709 6.541c0 7.452-7.375 13.616-9.25 15.064z">
            </path>
        </symbol>
        <symbol id="icon-email" viewBox="0 0 32 32">
            <path fill="#fff" style="fill: var(--color1, #fff)"
                d="M28.416 11.375l-12-8c-0.123-0.082-0.268-0.126-0.416-0.126s-0.293 0.044-0.416 0.126l-12 8c-0.103 0.069-0.187 0.162-0.245 0.271s-0.089 0.231-0.088 0.354v13c0 0.464 0.184 0.909 0.513 1.237s0.773 0.513 1.237 0.513h22c0.464 0 0.909-0.184 1.237-0.513s0.513-0.773 0.513-1.237v-13c0-0.124-0.030-0.245-0.088-0.354s-0.143-0.202-0.245-0.271zM16 4.901l10.679 7.125-8.737 6.224h-3.883l-8.737-6.229 10.679-7.12zM27 25.25h-22c-0.066 0-0.13-0.026-0.177-0.073s-0.073-0.11-0.073-0.177v-11.544l8.632 6.155c0.128 0.090 0.28 0.139 0.436 0.139h4.363c0.156-0 0.309-0.049 0.436-0.139l8.632-6.155v11.544c0 0.066-0.026 0.13-0.073 0.177s-0.11 0.073-0.177 0.073z">
            </path>
        </symbol>
        <symbol id="icon-phone-outline" viewBox="0 0 32 32">
            <path fill="#fff" style="fill: var(--color1, #fff)"
                d="M27.699 20.037l-5.905-2.646c-0.268-0.115-0.559-0.161-0.849-0.134s-0.569 0.125-0.811 0.287c-0.025 0.016-0.048 0.033-0.070 0.053l-3.086 2.625c-0.032 0.017-0.068 0.027-0.104 0.029s-0.073-0.006-0.106-0.021c-1.984-0.958-4.039-3-5-4.956-0.016-0.033-0.024-0.069-0.024-0.105s0.008-0.072 0.024-0.105l2.634-3.125c0.019-0.023 0.036-0.047 0.052-0.072 0.159-0.243 0.255-0.522 0.28-0.812s-0.024-0.581-0.14-0.847l-2.628-5.895c-0.149-0.348-0.407-0.638-0.735-0.827s-0.709-0.266-1.085-0.22c-1.633 0.215-3.133 1.017-4.218 2.257s-1.682 2.832-1.678 4.48c0 9.788 7.962 17.75 17.75 17.75 1.647 0.003 3.24-0.594 4.479-1.679s2.042-2.584 2.257-4.218c0.046-0.374-0.031-0.753-0.218-1.080s-0.474-0.585-0.82-0.736zM22 26.25c-8.96 0-16.25-7.29-16.25-16.25-0.004-1.283 0.459-2.523 1.302-3.489s2.010-1.592 3.281-1.761h0.029c0.050 0.001 0.099 0.017 0.14 0.046s0.072 0.070 0.090 0.117l2.638 5.889c0.015 0.033 0.023 0.068 0.023 0.104s-0.008 0.072-0.023 0.104l-2.639 3.132c-0.020 0.022-0.038 0.046-0.054 0.071-0.165 0.252-0.262 0.542-0.282 0.843s0.038 0.601 0.169 0.873c1.109 2.27 3.396 4.54 5.691 5.649 0.273 0.13 0.575 0.186 0.877 0.164s0.593-0.122 0.844-0.289c0.024-0.016 0.048-0.034 0.070-0.052l3.085-2.625c0.030-0.016 0.064-0.026 0.099-0.028s0.069 0.003 0.101 0.016l5.906 2.646c0.048 0.021 0.089 0.056 0.116 0.101s0.040 0.097 0.035 0.149c-0.168 1.272-0.793 2.439-1.759 3.284s-2.206 1.308-3.489 1.305z">
            </path>
        </symbol>
        <symbol id="icon-phone-yellow" viewBox="0 0 32 32">
            <path fill="#fdc70d" style="fill: var(--color2, #fdc70d)"
                d="M27.699 20.037l-5.905-2.646c-0.267-0.115-0.559-0.161-0.849-0.134s-0.568 0.125-0.811 0.287c-0.025 0.016-0.048 0.033-0.070 0.052l-3.086 2.625c-0.032 0.017-0.068 0.027-0.104 0.029s-0.073-0.006-0.106-0.021c-1.984-0.958-4.039-3-5-4.956-0.016-0.033-0.024-0.069-0.024-0.105s0.008-0.072 0.024-0.105l2.634-3.125c0.019-0.023 0.036-0.047 0.053-0.072 0.159-0.243 0.255-0.522 0.28-0.812s-0.024-0.581-0.14-0.847l-2.627-5.895c-0.149-0.348-0.407-0.638-0.735-0.827s-0.709-0.266-1.085-0.22c-1.633 0.215-3.133 1.017-4.218 2.257s-1.682 2.832-1.678 4.48c0 9.788 7.963 17.75 17.75 17.75 1.647 0.003 3.24-0.594 4.479-1.679s2.042-2.584 2.257-4.218c0.046-0.374-0.031-0.753-0.218-1.080s-0.474-0.585-0.82-0.736zM22 26.25c-8.96 0-16.25-7.29-16.25-16.25-0.004-1.283 0.459-2.523 1.302-3.489s2.010-1.592 3.281-1.761h0.029c0.050 0.001 0.099 0.017 0.14 0.046s0.072 0.070 0.090 0.117l2.637 5.889c0.015 0.033 0.023 0.068 0.023 0.104s-0.008 0.072-0.023 0.104l-2.639 3.133c-0.020 0.022-0.038 0.046-0.054 0.071-0.165 0.252-0.262 0.543-0.282 0.843s0.038 0.601 0.169 0.873c1.109 2.27 3.396 4.54 5.691 5.649 0.273 0.13 0.575 0.186 0.877 0.165s0.592-0.122 0.844-0.289c0.024-0.016 0.048-0.034 0.070-0.052l3.085-2.625c0.030-0.016 0.064-0.026 0.099-0.028s0.069 0.003 0.101 0.016l5.906 2.646c0.048 0.020 0.089 0.056 0.116 0.101s0.039 0.097 0.035 0.149c-0.168 1.272-0.793 2.439-1.759 3.284s-2.206 1.308-3.489 1.305z">
            </path>
        </symbol>
        <symbol id="icon-clipboard-text" viewBox="0 0 32 32">
            <path fill="#fdc70d" style="fill: var(--color2, #fdc70d)"
                d="M20.75 19c0 0.199-0.079 0.39-0.22 0.53s-0.331 0.22-0.53 0.22h-8c-0.199 0-0.39-0.079-0.53-0.22s-0.22-0.331-0.22-0.53c0-0.199 0.079-0.39 0.22-0.53s0.331-0.22 0.53-0.22h8c0.199 0 0.39 0.079 0.53 0.22s0.22 0.331 0.22 0.53zM20 14.25h-8c-0.199 0-0.39 0.079-0.53 0.22s-0.22 0.331-0.22 0.53c0 0.199 0.079 0.39 0.22 0.53s0.331 0.22 0.53 0.22h8c0.199 0 0.39-0.079 0.53-0.22s0.22-0.331 0.22-0.53c0-0.199-0.079-0.39-0.22-0.53s-0.331-0.22-0.53-0.22zM26.75 6v21c0 0.464-0.184 0.909-0.513 1.237s-0.773 0.513-1.237 0.513h-18c-0.464 0-0.909-0.184-1.237-0.513s-0.513-0.773-0.513-1.237v-21c0-0.464 0.184-0.909 0.513-1.237s0.773-0.513 1.237-0.513h4.646c0.539-0.627 1.207-1.131 1.958-1.476s1.569-0.524 2.396-0.524c0.827 0 1.644 0.179 2.396 0.524s1.419 0.849 1.958 1.476h4.646c0.464 0 0.909 0.184 1.237 0.513s0.513 0.773 0.513 1.237zM11.75 8v0.25h8.5v-0.25c0-1.127-0.448-2.208-1.245-3.005s-1.878-1.245-3.005-1.245-2.208 0.448-3.005 1.245c-0.797 0.797-1.245 1.878-1.245 3.005zM25.25 6c0-0.066-0.026-0.13-0.073-0.177s-0.11-0.073-0.177-0.073h-3.709c0.303 0.711 0.459 1.477 0.459 2.25v1c0 0.199-0.079 0.39-0.22 0.53s-0.331 0.22-0.53 0.22h-10c-0.199 0-0.39-0.079-0.53-0.22s-0.22-0.331-0.22-0.53v-1c-0.001-0.773 0.155-1.539 0.459-2.25h-3.709c-0.066 0-0.13 0.026-0.177 0.073s-0.073 0.11-0.073 0.177v21c0 0.066 0.026 0.13 0.073 0.177s0.11 0.073 0.177 0.073h18c0.066 0 0.13-0.026 0.177-0.073s0.073-0.11 0.073-0.177v-21z">
            </path>
        </symbol>
        <symbol id="icon-address-book" viewBox="0 0 32 32">
            <path fill="#fdc70d" style="fill: var(--color2, #fdc70d)"
                d="M19.889 17.766c0.788-0.604 1.367-1.439 1.656-2.389s0.273-1.966-0.046-2.907c-0.319-0.94-0.924-1.757-1.731-2.335s-1.775-0.889-2.768-0.889-1.961 0.311-2.768 0.889c-0.807 0.578-1.412 1.395-1.731 2.335s-0.335 1.957-0.046 2.907c0.289 0.95 0.868 1.785 1.656 2.389-1.479 0.552-2.767 1.519-3.711 2.784-0.119 0.159-0.171 0.359-0.142 0.556s0.133 0.375 0.292 0.494c0.159 0.119 0.359 0.171 0.556 0.142s0.375-0.133 0.494-0.292c0.629-0.838 1.444-1.519 2.381-1.988s1.971-0.713 3.019-0.713 2.081 0.244 3.019 0.713c0.937 0.469 1.752 1.149 2.381 1.988 0.119 0.159 0.297 0.264 0.494 0.292s0.397-0.023 0.556-0.142 0.264-0.297 0.292-0.494c0.028-0.197-0.023-0.397-0.142-0.556-0.944-1.265-2.233-2.231-3.711-2.784zM13.75 14c0-0.643 0.191-1.271 0.548-1.806s0.865-0.951 1.459-1.197c0.594-0.246 1.247-0.31 1.878-0.185s1.21 0.435 1.664 0.889c0.455 0.455 0.764 1.034 0.889 1.664s0.061 1.284-0.185 1.878c-0.246 0.594-0.663 1.101-1.197 1.458s-1.163 0.548-1.806 0.548c-0.862 0-1.689-0.342-2.298-0.952s-0.952-1.436-0.952-2.298zM26 3.25h-18c-0.464 0-0.909 0.184-1.237 0.513s-0.513 0.773-0.513 1.237v3.25h-2.25c-0.199 0-0.39 0.079-0.53 0.22s-0.22 0.331-0.22 0.53c0 0.199 0.079 0.39 0.22 0.53s0.331 0.22 0.53 0.22h2.25v5.5h-2.25c-0.199 0-0.39 0.079-0.53 0.22s-0.22 0.331-0.22 0.53c0 0.199 0.079 0.39 0.22 0.53s0.331 0.22 0.53 0.22h2.25v5.5h-2.25c-0.199 0-0.39 0.079-0.53 0.22s-0.22 0.331-0.22 0.53c0 0.199 0.079 0.39 0.22 0.53s0.331 0.22 0.53 0.22h2.25v3.25c0 0.464 0.184 0.909 0.513 1.237s0.773 0.513 1.237 0.513h18c0.464 0 0.909-0.184 1.237-0.513s0.513-0.773 0.513-1.237v-22c0-0.464-0.184-0.909-0.513-1.237s-0.773-0.513-1.237-0.513zM26.25 27c0 0.066-0.026 0.13-0.073 0.177s-0.11 0.073-0.177 0.073h-18c-0.066 0-0.13-0.026-0.177-0.073s-0.073-0.11-0.073-0.177v-22c0-0.066 0.026-0.13 0.073-0.177s0.11-0.073 0.177-0.073h18c0.066 0 0.13 0.026 0.177 0.073s0.073 0.11 0.073 0.177v22z">
            </path>
        </symbol>
        <symbol id="icon-tire" viewBox="0 0 32 32">
            <path fill="#fdc70d" style="fill: var(--color2, #fdc70d)"
                d="M20.129 4.645c-3.991 0-7.226 3.235-7.226 7.226s3.235 7.226 7.226 7.226c3.991 0 7.226-3.235 7.226-7.226s-3.235-7.226-7.226-7.226zM20.129 14.968c-1.71 0-3.097-1.386-3.097-3.097s1.386-3.097 3.097-3.097c1.71 0 3.097 1.386 3.097 3.097s-1.386 3.097-3.097 3.097z">
            </path>
            <path fill="#fdc70d" style="fill: var(--color2, #fdc70d)" d="M31.484 26.323h-20.645v2.065h20.645v-2.065z">
            </path>
            <path fill="#fdc70d" style="fill: var(--color2, #fdc70d)" d="M7.742 6.71h-2.065v24.774h2.065v-24.774z">
            </path>
            <path fill="#222" style="fill: var(--color3, #222)"
                d="M29.935 22.71h-4.974c4.143-1.854 7.038-6.013 7.038-10.839 0-6.546-5.325-11.871-11.871-11.871-4.4 0-8.362 2.381-10.441 6.234-0.129-0.025-0.261-0.040-0.397-0.040h-5.161c-1.139 0-2.065 0.926-2.065 2.065v4.326l-1.209 0.604c-0.527 0.264-0.856 0.795-0.856 1.385v9.046c0 0.59 0.328 1.121 0.856 1.385l1.209 0.604v4.326c0 1.139 0.926 2.065 2.065 2.065h25.806c1.139 0 2.065-0.926 2.065-2.065v-5.161c0-1.139-0.926-2.065-2.065-2.065zM24.259 23.742l-0.826 0.619 0.619 0.826 1.927-1.445h3.957c0.569 0 1.032 0.463 1.032 1.032v1.032h-1.377l-1.927-1.445-0.619 0.826 0.826 0.619h-5.506l-1.927-1.445-0.619 0.826 0.826 0.619h-6.022l-1.575-1.181c0.21-0.245 0.337-0.552 0.363-0.883h3.106l-0.826 0.619 0.619 0.826 1.927-1.445h6.022zM15.302 22.71h-1.882v-1.047c0.595 0.408 1.227 0.755 1.882 1.047zM12.387 23.62c0 0.197-0.109 0.374-0.285 0.462l-0.747 0.373v-10.717l0.747 0.374c0.176 0.088 0.285 0.264 0.285 0.461v9.047zM11.355 25.609l0.772-0.386 0.777 0.583h-1.549v-0.197zM14.104 2.856l2.587 0.693 0.267-0.997-1.586-0.425c1.247-0.607 2.617-0.98 4.051-1.071l1.889 1.889 0.73-0.73-1.145-1.144c1.44 0.102 2.8 0.485 4.031 1.097l0.687 2.565 0.997-0.267-0.422-1.575c1.164 0.789 2.166 1.799 2.949 2.968l-0.69 2.574 0.997 0.267 0.418-1.56c0.602 1.234 0.975 2.596 1.067 4.036l-1.878 1.878 0.73 0.73 1.144-1.144c-0.102 1.44-0.485 2.8-1.097 4.031l-2.565 0.687 0.267 0.997 1.575-0.422c-0.789 1.164-1.799 2.166-2.968 2.949l-2.574-0.69-0.267 0.997 1.56 0.418c-1.234 0.602-2.596 0.975-4.036 1.067l-1.878-1.878-0.73 0.73 1.15 1.15c-1.408-0.1-2.778-0.476-4.036-1.097l-0.688-2.57-0.997 0.267 0.422 1.575c-0.222-0.15-0.437-0.311-0.647-0.477v-5.802c0-0.59-0.328-1.121-0.856-1.385l-1.209-0.604v-4.326c0-0.499-0.185-0.95-0.48-1.307l2.116-0.567-0.267-0.997-1.58 0.423c0.797-1.186 1.805-2.181 2.961-2.954zM1.318 24.082c-0.176-0.088-0.285-0.264-0.285-0.461v-9.047c0-0.197 0.109-0.374 0.285-0.462l0.747-0.373v10.717l-0.747-0.374zM3.097 29.935v-4.646l0.619 0.826 0.826-0.619-1.445-1.927v-5.808l0.667 0.667 0.73-0.73-1.397-1.397v-5.766l0.667 0.667 0.73-0.73-1.397-1.397v-0.819c0-0.569 0.463-1.032 1.032-1.032h1.032v2.065h1.032v-2.065h1.032v23.742h-1.032v-20.645h-1.032v2.367l-1.397 1.397 0.73 0.73 0.667-0.667v5.808l-1.445 1.927 0.826 0.619 0.619-0.826v5.506l-1.445 1.926 0.826 0.619 0.619-0.826v2.065h-1.032c-0.569 0-1.032-0.463-1.032-1.032zM8.258 30.968v-2.065l0.619 0.826 0.826-0.619-1.445-1.927v-5.506l0.619 0.826 0.826-0.619-1.445-1.927v-6.022l0.619 0.826 0.826-0.619-1.445-1.927v-4.989h1.032c0.569 0 1.032 0.463 1.032 1.032v0.344l-1.445 1.927 0.826 0.619 0.619-0.826v5.506l-1.445 1.927 0.826 0.619 0.619-0.826v6.022l-1.445 1.927 0.826 0.619 0.619-0.826v4.646c0 0.569-0.463 1.032-1.032 1.032h-1.032zM29.935 30.968h-3.957l-1.927-1.445-0.619 0.826 0.826 0.619h-6.022l-1.927-1.445-0.619 0.826 0.826 0.619h-5.448c0.178-0.305 0.287-0.654 0.287-1.032v-1.032h1.549l-0.826 0.619 0.619 0.826 1.927-1.445h1.893v-1.032h-5.161v-1.032h19.613v1.032h-13.419v1.032h3.097l-0.826 0.619 0.619 0.826 1.927-1.445h5.506l-0.826 0.619 0.619 0.826 1.927-1.445h1.377v1.032c0 0.569-0.463 1.032-1.032 1.032z">
            </path>
            <path fill="#222" style="fill: var(--color3, #222)"
                d="M20.129 15.484c1.992 0 3.613-1.621 3.613-3.613s-1.621-3.613-3.613-3.613c-1.992 0-3.613 1.621-3.613 3.613s1.621 3.613 3.613 3.613zM20.129 9.29c1.423 0 2.581 1.158 2.581 2.581s-1.158 2.581-2.581 2.581c-1.423 0-2.581-1.158-2.581-2.581s1.158-2.581 2.581-2.581z">
            </path>
            <path fill="#222" style="fill: var(--color3, #222)" d="M20.645 6.194h-1.032v1.032h1.032v-1.032z"></path>
            <path fill="#222" style="fill: var(--color3, #222)"
                d="M15.552 10.927l0.319-0.982-0.982-0.319-0.319 0.982 0.982 0.319z"></path>
            <path fill="#222" style="fill: var(--color3, #222)"
                d="M17.209 16.768l0.606-0.835-0.835-0.607-0.606 0.835 0.835 0.607z"></path>
            <path fill="#222" style="fill: var(--color3, #222)"
                d="M23.048 16.764l0.835-0.607-0.607-0.834-0.835 0.607 0.607 0.834z"></path>
            <path fill="#222" style="fill: var(--color3, #222)"
                d="M24.703 10.926l0.982-0.319-0.319-0.982-0.982 0.319 0.319 0.982z"></path>
        </symbol>
        <symbol id="icon-car-wash" viewBox="0 0 32 32">
            <path fill="#fdc70d" style="fill: var(--color2, #fdc70d)"
                d="M23.353 22.194h-14.707l0.992-4.465c0.159-0.714 0.78-1.213 1.512-1.213h9.699c0.731 0 1.353 0.498 1.512 1.213l0.992 4.465z">
            </path>
            <path fill="#fdc70d" style="fill: var(--color2, #fdc70d)"
                d="M8.774 26.323c-0.854 0-1.548-0.695-1.548-1.548s0.695-1.548 1.548-1.548c0.854 0 1.548 0.695 1.548 1.548s-0.695 1.548-1.548 1.548z">
            </path>
            <path fill="#fdc70d" style="fill: var(--color2, #fdc70d)"
                d="M23.226 26.323c-0.854 0-1.548-0.695-1.548-1.548s0.695-1.548 1.548-1.548c0.854 0 1.548 0.695 1.548 1.548s-0.695 1.548-1.548 1.548z">
            </path>
            <path fill="#fdc70d" style="fill: var(--color2, #fdc70d)"
                d="M10.323 9.29c-0.854 0-1.548-0.695-1.548-1.548 0-0.44 0.129-0.865 0.373-1.232l1.175-1.763 1.175 1.763c0.244 0.367 0.373 0.792 0.373 1.232 0 0.854-0.695 1.548-1.548 1.548z">
            </path>
            <path fill="#fdc70d" style="fill: var(--color2, #fdc70d)"
                d="M20.645 9.29c-0.854 0-1.548-0.695-1.548-1.548 0-0.44 0.129-0.865 0.373-1.232l1.175-1.763 1.175 1.763c0.244 0.367 0.373 0.792 0.373 1.232 0 0.854-0.695 1.548-1.548 1.548z">
            </path>
            <path fill="#222" style="fill: var(--color3, #222)"
                d="M24.255 17.308c-0.071-0.332-0.199-0.64-0.354-0.929 0.545-0.485 0.873-1.183 0.873-1.927 0-1.423-1.158-2.581-2.581-2.581-0.209 0-0.417 0.025-0.619 0.075-0.382-0.375-0.9-0.591-1.446-0.591-1.139 0-2.064 0.926-2.064 2.065h1.032c0-0.569 0.463-1.032 1.032-1.032 0.34 0 0.657 0.168 0.851 0.45l0.236 0.344 0.386-0.159c0.19-0.078 0.389-0.118 0.591-0.118 0.854 0 1.548 0.695 1.548 1.548 0 0.414-0.167 0.806-0.452 1.093-0.664-0.674-1.577-1.093-2.568-1.093h-9.444c-0.636 0-1.242 0.17-1.77 0.469-0.426-0.131-0.733-0.53-0.733-0.985 0-0.726 0.787-1.283 1.501-0.912l0.481 0.248 0.226-0.492c0.252-0.552 0.803-0.908 1.405-0.908 0.488 0 0.938 0.229 1.236 0.628l0.311 0.417 0.414-0.314c0.184-0.14 0.398-0.214 0.619-0.214v-1.032c-0.288 0-0.568 0.060-0.828 0.177-0.474-0.445-1.092-0.693-1.752-0.693-0.841 0-1.624 0.417-2.102 1.091-0.157-0.039-0.317-0.059-0.478-0.059-1.139 0-2.065 0.926-2.065 2.065 0 0.687 0.353 1.307 0.889 1.685-0.43 0.464-0.747 1.038-0.886 1.687l-0.383 1.789h-3.233v2.065c0 0.854 0.695 1.548 1.548 1.548h0.136c-0.41 0.586-0.652 1.297-0.652 2.065v2.065c-0.57 0.004-1.032 0.465-1.032 1.032v1.032c0 0.569 0.466 1.032 1.039 1.032h0.51v0.516c0 0.854 0.695 1.548 1.548 1.548h2.065c0.854 0 1.548-0.695 1.548-1.548v-0.516h10.323v0.516c0 0.854 0.695 1.548 1.548 1.548h2.065c0.854 0 1.548-0.695 1.548-1.548v-0.516h0.51c0.573 0 1.039-0.463 1.039-1.032v-1.032c0-0.567-0.462-1.028-1.032-1.032v-2.065c0-0.767-0.243-1.479-0.652-2.065h0.136c0.854 0 1.548-0.695 1.548-1.548v-2.065h-3.233l-0.383-1.789zM25.806 26.839h-19.613v-2.065c0-1.423 1.158-2.581 2.581-2.581h1.675l1.032 3.613h9.037l1.032-3.613h1.675c1.423 0 2.581 1.158 2.581 2.581v2.065zM11.523 22.194h8.954l-0.737 2.581h-7.48l-0.737-2.581zM8.755 17.524c0.254-1.183 1.314-2.040 2.523-2.040h9.445c1.209 0 2.27 0.858 2.523 2.040l0.8 3.735c-0.265-0.062-0.538-0.098-0.821-0.098h-14.452c-0.282 0-0.556 0.036-0.82 0.098l0.8-3.735zM5.161 21.161v-1.032h1.979l-0.332 1.548h-1.131c-0.284 0-0.516-0.231-0.516-0.516zM9.806 30.452c0 0.285-0.232 0.516-0.516 0.516h-2.065c-0.284 0-0.516-0.231-0.516-0.516v-0.516h3.097v0.516zM25.29 30.452c0 0.285-0.232 0.516-0.516 0.516h-2.065c-0.284 0-0.516-0.231-0.516-0.516v-0.516h3.097v0.516zM26.832 28.903h-21.671l0.006-1.032h21.671l-0.006 1.032zM26.839 20.129v1.032c0 0.285-0.232 0.516-0.516 0.516h-1.131l-0.332-1.548h1.979z">
            </path>
            <path fill="#222" style="fill: var(--color3, #222)"
                d="M5.777 7.955l1.691-2.325 0.835 0.607-1.691 2.325-0.834-0.607z"></path>
            <path fill="#222" style="fill: var(--color3, #222)"
                d="M12.345 6.237l0.834-0.607 1.691 2.325-0.834 0.607-1.691-2.325z"></path>
            <path fill="#222" style="fill: var(--color3, #222)"
                d="M16.1 7.954l1.691-2.325 0.834 0.607-1.691 2.325-0.834-0.607z"></path>
            <path fill="#222" style="fill: var(--color3, #222)"
                d="M22.668 6.236l0.834-0.607 1.691 2.325-0.834 0.607-1.691-2.325z"></path>
            <path fill="#222" style="fill: var(--color3, #222)"
                d="M2.064 18.065c-0.569 0-1.032-0.463-1.032-1.032s0.463-1.032 1.032-1.032h0.516v-0.516c0-0.854 0.695-1.548 1.548-1.548s1.548 0.695 1.548 1.548h1.032c0-1.423-1.158-2.581-2.581-2.581-1.266 0-2.322 0.916-2.539 2.119-0.911 0.215-1.59 1.035-1.59 2.010 0 1.139 0.926 2.065 2.064 2.065v-1.032z">
            </path>
            <path fill="#222" style="fill: var(--color3, #222)" d="M3.613 15.484h1.032v1.032h-1.032v-1.032z"></path>
            <path fill="#222" style="fill: var(--color3, #222)" d="M2.064 20.129h1.032v1.032h-1.032v-1.032z"></path>
            <path fill="#222" style="fill: var(--color3, #222)" d="M27.355 15.484h1.032v1.032h-1.032v-1.032z"></path>
            <path fill="#222" style="fill: var(--color3, #222)"
                d="M5.161 0v3.097h4.148l-1.273 1.751 0.835 0.607 1.452-1.997 1.452 1.997 0.835-0.607-1.273-1.751h8.296l-1.273 1.751 0.835 0.607 1.452-1.997 1.452 1.997 0.835-0.607-1.273-1.751h5.483l1.762 1.762v8.269c-0.318-0.139-0.664-0.225-1.032-0.225-1.423 0-2.581 1.158-2.581 2.581h1.032c0-0.854 0.695-1.548 1.548-1.548s1.548 0.695 1.548 1.548v0.516h0.516c0.569 0 1.032 0.463 1.032 1.032s-0.463 1.032-1.032 1.032v1.032c0.378 0 0.727-0.109 1.032-0.287v12.158h-1.032v-10.839h-1.032v11.871h3.097v-32h-26.839zM6.194 1.032h24.774v1.032h-24.774v-1.032zM30.41 15.022c-0.072-0.398-0.242-0.759-0.475-1.072v-9.519l-1.335-1.335h2.367v12.154c-0.172-0.101-0.358-0.181-0.557-0.229z">
            </path>
            <path fill="#222" style="fill: var(--color3, #222)" d="M16.516 10.323h1.032v1.032h-1.032v-1.032z"></path>
            <path fill="#222" style="fill: var(--color3, #222)" d="M6.194 10.323h1.032v1.032h-1.032v-1.032z"></path>
            <path fill="#222" style="fill: var(--color3, #222)" d="M25.29 10.323h1.032v1.032h-1.032v-1.032z"></path>
        </symbol>
        <symbol id="icon-service" viewBox="0 0 32 32">
            <path fill="#222" style="fill: var(--color3, #222)" d="M19.097 29.419h6.71v1.032h-6.71v-1.032z"></path>
            <path fill="#222" style="fill: var(--color3, #222)"
                d="M10.323 25.806c0-0.569-0.463-1.032-1.032-1.032h-2.065v-12.903h-1.032v12.903h-2.065v-12.903h-1.032v12.903h-2.065c-0.569 0-1.032 0.463-1.032 1.032v2.065c0 0.189 0.055 0.364 0.143 0.516-0.089 0.152-0.143 0.327-0.143 0.516v2.065c0 0.569 0.463 1.032 1.032 1.032h8.258c0.569 0 1.032-0.463 1.032-1.032v-2.065c0-0.189-0.055-0.364-0.143-0.516 0.089-0.152 0.143-0.327 0.143-0.516v-2.065zM9.29 27.871h-1.1l0.688-1.032-0.688-1.032h1.1v2.065zM7.638 29.936l-0.688 1.032h-1.34l0.688-1.032-0.688-1.032h1.34l0.688 1.032zM6.95 25.806l0.688 1.032-0.688 1.032h-1.34l0.688-1.032-0.688-1.032h1.34zM5.057 26.839l-0.688 1.032h-1.34l0.688-1.032-0.688-1.032h1.34l0.688 1.032zM4.369 28.903l0.688 1.032-0.688 1.032h-1.34l0.688-1.032-0.688-1.032h1.34zM1.032 25.806h0.756l0.688 1.032-0.688 1.032h-0.756v-2.065zM1.032 28.903h0.756l0.688 1.032-0.688 1.032h-0.756v-2.065zM8.191 30.968l0.688-1.032-0.688-1.032h1.1l0.001 2.065h-1.101z">
            </path>
            <path fill="#fdc70d" style="fill: var(--color2, #fdc70d)" d="M8.258 12.387h-6.194v-3.097h6.194v3.097z">
            </path>
            <path fill="#222" style="fill: var(--color3, #222)"
                d="M26.839 22.71h-6.923l-2.367 2.367v0.646c0 1.138 0.183 2.263 0.543 3.344l0.979-0.327c-0.316-0.949-0.478-1.935-0.486-2.934h8.155c-0.13 0.925-0.388 1.834-0.785 2.676l0.934 0.441c0.643-1.365 0.984-2.884 0.984-4.392v-0.789c0-0.569-0.463-1.032-1.032-1.032zM19.311 24.774l1.032-1.032h6.496v0.789c0 0.081-0.011 0.162-0.013 0.244h-7.515z">
            </path>
            <path fill="#222" style="fill: var(--color3, #222)" d="M19.613 26.839h2.064v1.032h-2.064v-1.032z"></path>
            <path fill="#222" style="fill: var(--color3, #222)"
                d="M32 9.29v-7.226c0-0.569-0.463-1.032-1.032-1.032h-4.129v0.010c-0.864-0.651-1.934-1.042-3.097-1.042-1.44 0-2.742 0.594-3.679 1.548h-4.881l-1.548-1.548h-2.951l-1.548 1.032h-8.102c-0.569 0-1.032 0.463-1.032 1.032v7.226c0 0.569 0.463 1.032 1.032 1.032h9.29v2.065h1.032v11.871h1.032v-11.871h15.484v8.258h-8.325c-0.428 0-0.841 0.18-1.133 0.493l-2.584 2.772c-0.068 0.073-0.154 0.123-0.251 0.148l-3.051 0.763c-0.69 0.172-1.173 0.79-1.173 1.502v2.581c0 0.854 0.695 1.548 1.548 1.548h3.097v-1.032h-3.097c-0.285 0-0.516-0.231-0.516-0.516v-1.552c1.11-0.009 2.206-0.188 3.26-0.539l-0.327-0.979c-0.949 0.316-1.935 0.478-2.933 0.486 0.002-0.236 0.162-0.44 0.39-0.498l3.051-0.763c0.292-0.073 0.554-0.227 0.757-0.446l2.583-2.771c0.097-0.104 0.234-0.164 0.377-0.164h8.054c0.839 1.206 1.303 2.66 1.303 4.129v0.516h2.065v1.032h-1.548v1.032h1.548v0.516c0 0.285-0.231 0.516-0.516 0.516h-1.548v1.032h1.548c0.854 0 1.548-0.695 1.548-1.548v-4.012c0-0.394-0.148-0.769-0.416-1.055l-0.616-0.662v-12.851c0.569 0 1.032-0.463 1.032-1.032zM30.968 9.29h-4.142c0.995-0.745 1.716-1.836 1.974-3.097h2.169v3.097zM24.679 6.99c0.228-0.117 0.43-0.273 0.599-0.463l0.578 1.167 1.198-0.078c-0.612 0.823-1.519 1.411-2.567 1.603l-0.641-0.961 0.841-1.262-0.008-0.006zM30.968 2.064v3.097h-2.065c0-1.162-0.391-2.233-1.042-3.097h3.107zM27.527 3.516c0.22 0.504 0.344 1.061 0.344 1.645 0 0.486-0.089 0.95-0.244 1.384l-1.151 0.074-0.672-1.36-0.007 0.003c0.002-0.034 0.010-0.067 0.010-0.102 0-0.228-0.046-0.443-0.114-0.648l1.3 0.084 0.535-1.082zM24.209 1.061c1.068 0.121 2.011 0.65 2.674 1.427l-0.511 1.035-1.514-0.098-0.001 0.004c-0.21-0.136-0.444-0.237-0.696-0.289l0.718-1.076-0.67-1.004zM24.774 5.161c0 0.569-0.463 1.032-1.032 1.032s-1.032-0.463-1.032-1.032 0.463-1.032 1.032-1.032c0.569 0 1.032 0.463 1.032 1.032zM23.275 9.262c-1.068-0.121-2.011-0.65-2.674-1.427l0.511-1.035 1.514 0.098 0.001-0.004c0.21 0.136 0.444 0.237 0.696 0.289l-0.718 1.076 0.67 1.004zM22.997 1.103l0.641 0.961-0.841 1.262 0.008 0.006c-0.228 0.117-0.43 0.273-0.599 0.463l-0.578-1.167-1.198 0.078c0.612-0.823 1.519-1.411 2.567-1.603zM19.857 3.777l1.151-0.074 0.672 1.36 0.007-0.004c-0.002 0.034-0.010 0.067-0.010 0.102 0 0.228 0.046 0.443 0.114 0.648l-1.3-0.084-0.535 1.082c-0.22-0.504-0.344-1.061-0.344-1.645 0-0.486 0.089-0.95 0.244-1.384zM9.806 1.825l1.189-0.792h2.21l1.548 1.548h4.525c-0.36 0.619-0.598 1.318-0.672 2.065h-3.853l-1.548 1.548h-2.21l-1.189-0.792v-0.24h2.581v-3.097h-2.581v-0.24zM1.032 9.29v-3.097h2.065v-1.032h-2.065v-3.097h7.742v1.032h2.581v1.032h-2.581v1.032h-4.645v1.032h5.005l1.548 1.032h2.951l1.548-1.548h3.425c0.148 1.477 0.923 2.768 2.052 3.613h-19.626zM11.355 11.355v-1.032h16.516v1.032h-16.516zM29.919 25.29c-0.048-0.757-0.205-1.503-0.456-2.217l1.367 1.466c0.089 0.095 0.138 0.221 0.138 0.352v0.399h-1.049zM29.071 21.139c-0.051-0.055-0.11-0.1-0.168-0.147v-10.669h1.032v11.743l-0.864-0.927z">
            </path>
            <path fill="#fdc70d" style="fill: var(--color2, #fdc70d)" d="M16 13.935h9.29v5.161h-9.29v-5.161z"></path>
            <path fill="#222" style="fill: var(--color3, #222)"
                d="M21.161 13.419h-5.677v6.194h10.323v-6.194h-4.645zM16.516 14.452h3.613v4.129h-3.613v-4.129zM24.774 18.581h-3.613v-4.129h3.613v4.129z">
            </path>
            <path fill="#fdc70d" style="fill: var(--color2, #fdc70d)"
                d="M17.548 32c-1.139 0-2.065-0.926-2.065-2.064s0.926-2.065 2.065-2.065 2.065 0.926 2.065 2.065c0 1.139-0.926 2.065-2.065 2.065z">
            </path>
            <path fill="#fdc70d" style="fill: var(--color2, #fdc70d)"
                d="M27.355 32c-1.139 0-2.064-0.926-2.064-2.064s0.926-2.065 2.064-2.065c1.139 0 2.065 0.926 2.065 2.065s-0.926 2.065-2.065 2.065z">
            </path>
        </symbol>
        <symbol id="icon-phone-white" viewBox="0 0 32 32">
            <path fill="#fff" style="fill: var(--color1, #fff)"
                d="M29.432 21.004c-1.959 0-3.883-0.306-5.706-0.909-0.893-0.305-1.991-0.025-2.537 0.535l-3.598 2.716c-4.173-2.228-6.743-4.797-8.94-8.938l2.636-3.504c0.685-0.684 0.931-1.683 0.636-2.621-0.605-1.832-0.912-3.755-0.912-5.715 0-1.416-1.152-2.568-2.568-2.568h-5.877c-1.416 0-2.568 1.152-2.568 2.568 0 16.229 13.203 29.432 29.432 29.432 1.416 0 2.568-1.152 2.568-2.568v-5.86c0-1.416-1.152-2.568-2.568-2.568z">
            </path>
        </symbol>
        <symbol id="icon-arrow-down" viewBox="0 0 59 32">
            <path fill="none" stroke="#fff" style="stroke: var(--color1, #fff)" stroke-linejoin="round"
                stroke-linecap="round" stroke-miterlimit="4" stroke-width="8" d="M8 5.333l21.333 21.333 21.333-21.333">
            </path>
        </symbol>
        <symbol id="icon-check" viewBox="0 0 41 32">
            <path fill="none" stroke="#fdc70d" style="stroke: var(--color1, #fdc70d)" stroke-linejoin="round"
                stroke-linecap="round" stroke-miterlimit="4" stroke-width="3.4286"
                d="M2.286 15.714l13.187 12.857 23.385-26.286"></path>
        </symbol>
        <symbol id="icon-swiper-arrow-right" viewBox="0 0 106 32">
            <path fill="#fdc70d" style="fill: var(--color1, #fdc70d)"
                d="M3 18c-1.105 0-2-0.895-2-2s0.895-2 2-2v4zM104.414 14.586c0.781 0.781 0.781 2.047 0 2.828l-12.728 12.728c-0.781 0.781-2.047 0.781-2.828 0s-0.781-2.047 0-2.828l11.314-11.314-11.314-11.314c-0.781-0.781-0.781-2.047 0-2.828s2.047-0.781 2.828 0l12.728 12.728zM3 14h100v4h-100v-4z">
            </path>
        </symbol>
        <symbol id="icon-swiper-arrow-left" viewBox="0 0 104 32">
            <path fill="#fdc70d" style="fill: var(--color1, #fdc70d)"
                d="M102 18c1.105 0 2-0.895 2-2s-0.895-2-2-2v4zM0.586 14.586c-0.781 0.781-0.781 2.047 0 2.828l12.728 12.728c0.781 0.781 2.047 0.781 2.828 0s0.781-2.047 0-2.828l-11.314-11.314 11.314-11.314c0.781-0.781 0.781-2.047 0-2.828s-2.047-0.781-2.828 0l-12.728 12.728zM102 14h-100v4h100v-4z">
            </path>
        </symbol>
        <symbol id="icon-call" viewBox="0 0 32 32">
            <path
                d="M29.432 21.004c-1.959 0-3.883-0.306-5.706-0.909-0.718-0.245-1.569-0.112-2.158 0.241-0.274 0.164-0.506 0.391-0.762 0.584-1.96 1.48-4.663 1.764-6.609 0.267-1.197-0.921-2.233-1.935-3.167-3.101-1.673-2.089-1.351-5.043 0.258-7.181 0.685-0.684 0.931-1.683 0.636-2.621-0.605-1.832-0.912-3.755-0.912-5.715 0-1.416-1.152-2.568-2.568-2.568h-5.877c-1.416 0-2.568 1.152-2.568 2.568 0 16.229 13.203 29.432 29.432 29.432 1.416 0 2.568-1.152 2.568-2.568v-5.86c0-1.416-1.152-2.568-2.568-2.568z">
            </path>
        </symbol>
        <symbol id="icon-header-menu" viewBox="0 0 56 32">
            <path fill="none" stroke="#fff" style="stroke: var(--color1, #fff)" stroke-linejoin="miter"
                stroke-linecap="round" stroke-miterlimit="4" stroke-width="1.3913" d="M54.582 1.391h-53.512"></path>
            <path fill="none" stroke="#fff" style="stroke: var(--color1, #fff)" stroke-linejoin="miter"
                stroke-linecap="round" stroke-miterlimit="4" stroke-width="1.3913" d="M54.582 11.13h-53.512"></path>
            <path fill="none" stroke="#fff" style="stroke: var(--color1, #fff)" stroke-linejoin="miter"
                stroke-linecap="round" stroke-miterlimit="4" stroke-width="1.3913" d="M54.582 20.87h-53.512"></path>
            <path fill="none" stroke="#fff" style="stroke: var(--color1, #fff)" stroke-linejoin="miter"
                stroke-linecap="round" stroke-miterlimit="4" stroke-width="1.3913" d="M54.582 30.609h-53.512"></path>
        </symbol>
        <symbol id="icon-header-cross" viewBox="0 0 31 32">
            <path fill="none" stroke="#fff" style="stroke: var(--color1, #fff)" stroke-linejoin="miter"
                stroke-linecap="round" stroke-miterlimit="4" stroke-width="1.0667" d="M30.076 30.286l-29.009-29.009">
            </path>
            <path fill="none" stroke="#fff" style="stroke: var(--color1, #fff)" stroke-linejoin="miter"
                stroke-linecap="round" stroke-miterlimit="4" stroke-width="1.0667" d="M30.076 1.067l-29.009 29.010">
            </path>
        </symbol>
        <symbol id="icon-tools" viewBox="0 0 32 32">
            <path
                d="M14.763 18.695l1.988 1.988c0.233 0.233 0.502 0.407 0.785 0.541l3.732-3.732c-0.134-0.283-0.307-0.551-0.54-0.785l-1.988-1.988-1.325 1.325-10.225-10.182 1.445-1.445-6.186-4.417-2.447 2.447 4.417 6.186 1.445-1.445 10.225 10.182-1.325 1.326z">
            </path>
            <path
                d="M12.736 23.24l2.027-1.895-2.651-2.651 1.325-1.325-1.325-1.325-3.352 3.22c-2.365-0.841-5.042-0.26-6.842 1.54-2.558 2.558-2.558 6.72 0 9.278s6.72 2.557 9.278 0c1.8-1.801 2.382-4.477 1.54-6.842zM4.569 27.431c-1.096-1.097-1.096-2.88 0-3.976s2.88-1.096 3.976 0c1.096 1.096 1.096 2.88 0 3.976s-2.88 1.096-3.976 0z">
            </path>
            <path
                d="M7.22 24.78c-0.366-0.366-0.96-0.366-1.325 0s-0.365 0.96 0 1.325c0.366 0.366 0.96 0.366 1.325 0s0.365-0.96 0-1.325z">
            </path>
            <path
                d="M30.619 24.003l-6.578-6.633-2.651 2.651 5.916 5.971-1.325 1.325-5.916-5.971-2.651 2.651 6.579 6.633c1.827 1.827 4.8 1.827 6.627 0s1.827-4.8 0-6.627z">
            </path>
            <path
                d="M19.252 8.771l-3.165 3.297 1.325 1.325 1.325-1.325 2.651 2.651 1.839-1.971c2.365 0.841 5.042 0.26 6.842-1.54 1.96-1.96 2.475-4.96 1.282-7.466l-0.143-0.3-3.789 3.789h-2.651v-2.651l3.789-3.789-0.3-0.143c-2.505-1.194-5.505-0.679-7.466 1.281-1.8 1.8-2.382 4.477-1.54 6.842z">
            </path>
            <symbol id="icon-arrow-black" viewBox="0 0 32 32">
                <path fill="none" stroke="#242424" style="stroke: var(--color1, #242424)" stroke-linejoin="miter"
                    stroke-linecap="butt" stroke-miterlimit="4" stroke-width="1.0667"
                    d="M31.467 16c0 8.542-6.925 15.467-15.467 15.467s-15.467-6.925-15.467-15.467c0-8.542 6.925-15.467 15.467-15.467s15.467 6.925 15.467 15.467z">
                </path>
                <path fill="none" stroke="#242424" style="stroke: var(--color1, #242424)" stroke-linejoin="round"
                    stroke-linecap="round" stroke-miterlimit="4" stroke-width="2.1333" d="M13 10l6 6-6 6"></path>
            </symbol>
            <symbol id="icon-arrow-yellow" viewBox="0 0 32 32">
                <path fill="none" stroke="#fdc70d" style="stroke: var(--color1, #fdc70d)" stroke-linejoin="miter"
                    stroke-linecap="butt" stroke-miterlimit="4" stroke-width="1.0667"
                    d="M31.467 16c0 8.542-6.925 15.467-15.467 15.467s-15.467-6.925-15.467-15.467c0-8.542 6.925-15.467 15.467-15.467s15.467 6.925 15.467 15.467z">
                </path>
                <path fill="none" stroke="#fdc70d" style="stroke: var(--color1, #fdc70d)" stroke-linejoin="round"
                    stroke-linecap="round" stroke-miterlimit="4" stroke-width="2.1333" d="M13 10l6 6-6 6"></path>
            </symbol>
            <symbol id="icon-bg" viewBox="0 0 44 32">
                <path fill="#fff" style="fill: var(--color2, #fff)" opacity="0.5"
                    d="M4.837 6.285c0.559-0.118 1.13-0.176 1.702-0.174 1.065-0.006 2.123 0.169 3.129 0.517 2.239 0.767 3.908 2.183 5.005 4.249 0.671 1.212 1.027 2.572 1.034 3.957-0.001 0.859-0.131 1.713-0.388 2.532-0.689 2.25-2.067 3.933-4.134 5.049-1.201 0.654-2.547 0.999-3.915 1.004-0.877-0.005-1.748-0.143-2.584-0.408-1.809-0.553-3.371-1.726-4.686-3.521l2.125-2.358c1.077 1.592 2.231 2.571 3.463 2.939 0.532 0.169 1.087 0.256 1.645 0.259 0.875-0.007 1.734-0.229 2.503-0.646 0.639-0.328 1.204-0.784 1.659-1.34s0.792-1.199 0.988-1.89c0.17-0.531 0.257-1.086 0.258-1.643-0.008-0.876-0.233-1.735-0.655-2.503-0.684-1.311-1.853-2.303-3.258-2.765-0.674-0.23-1.383-0.343-2.096-0.335-1.039 0-2.368 0.258-3.987 0.775l-1.824-1.575 2.619-7.235v-1.174h8.527v3.012h-5.981l-1.149 3.274z">
                </path>
                <path fill="#fff" style="fill: var(--color2, #fff)" opacity="0.5"
                    d="M30.424 8.796c-2.412 2.701-4.276 4.988-5.594 6.86s-2.026 4.413-2.125 7.623h-3.070c0.116-3.968 0.922-6.997 2.416-9.087 1.661-2.296 3.445-4.501 5.345-6.605 2.067-2.313 3.178-3.839 3.332-4.576h-11.063v-3.012h14.478c-0.069 3.162-1.308 6.094-3.718 8.796z">
                </path>
                <path fill="#fff" style="fill: var(--color2, #fff)" opacity="0.5"
                    d="M43.416 0v23.28h-3.012v-19.353h-2.226l3.056-3.928h2.182z"></path>
                <path fill="#fff" style="fill: var(--color2, #fff)" opacity="0.5"
                    d="M9.739 14.845c0 0.544-0.161 1.077-0.464 1.529s-0.732 0.806-1.235 1.014c-0.503 0.209-1.056 0.263-1.59 0.157s-1.025-0.368-1.41-0.752c-0.385-0.385-0.648-0.875-0.754-1.409s-0.053-1.087 0.155-1.59c0.208-0.503 0.56-0.933 1.012-1.236s0.984-0.465 1.529-0.466c0.73 0 1.43 0.29 1.947 0.806s0.806 1.217 0.806 1.947z">
                </path>
                <path fill="#fff" style="fill: var(--color2, #fff)" opacity="0.5"
                    d="M2.048 31.037c0.044 0.045 0.097 0.081 0.156 0.105s0.122 0.036 0.185 0.035c0.095-0 0.188-0.029 0.267-0.081s0.141-0.128 0.178-0.216 0.046-0.185 0.028-0.278c-0.018-0.093-0.064-0.179-0.131-0.247-0.129-0.113-0.268-0.213-0.416-0.3-0.223-0.112-0.43-0.252-0.616-0.419-0.152-0.153-0.255-0.347-0.296-0.558s-0.019-0.43 0.064-0.629c0.083-0.199 0.223-0.368 0.403-0.487s0.39-0.182 0.605-0.181c0.139-0.004 0.277 0.021 0.406 0.073s0.245 0.13 0.342 0.229c0.135 0.13 0.23 0.296 0.273 0.478l-0.775 0.225c-0.009-0.046-0.028-0.090-0.054-0.129-0.025-0.023-0.054-0.042-0.086-0.053s-0.066-0.017-0.1-0.016c-0.037-0.001-0.074 0.006-0.109 0.020s-0.066 0.035-0.092 0.062c-0.027 0.026-0.048 0.057-0.063 0.092s-0.022 0.072-0.021 0.109c-0.001 0.037 0.006 0.073 0.020 0.107s0.035 0.065 0.061 0.090c0.102 0.088 0.21 0.168 0.323 0.24 0.253 0.128 0.488 0.29 0.698 0.481 0.121 0.117 0.217 0.258 0.282 0.413s0.097 0.323 0.095 0.491c0.003 0.17-0.029 0.338-0.094 0.495s-0.16 0.299-0.281 0.418c-0.119 0.12-0.261 0.215-0.417 0.281s-0.324 0.099-0.493 0.099-0.337-0.034-0.493-0.099c-0.156-0.065-0.298-0.161-0.417-0.281-0.175-0.177-0.294-0.402-0.341-0.646l0.804-0.176c0.011 0.093 0.049 0.18 0.109 0.252z">
                </path>
                <path fill="#fff" style="fill: var(--color2, #fff)" opacity="0.5"
                    d="M5.906 30.988c0.129 0.119 0.38 0.178 0.734 0.178 0.182 0.003 0.364-0.031 0.532-0.101s0.322-0.172 0.45-0.302c0.034-0.036 0.102-0.116 0.205-0.24l0.804 0.287c-0.13 0.189-0.273 0.37-0.426 0.54-0.302 0.3-0.684 0.507-1.101 0.595s-0.849 0.054-1.247-0.098c-0.397-0.152-0.743-0.416-0.994-0.76s-0.398-0.753-0.422-1.178c-0.024-0.425 0.075-0.848 0.285-1.218s0.523-0.671 0.901-0.868c0.378-0.196 0.804-0.28 1.228-0.24s0.827 0.202 1.161 0.465c0.065 0.054 0.128 0.112 0.19 0.174 0.026 0.026 0.099 0.107 0.221 0.245l-0.403 0.407-2.118 2.112zM7.25 28.505c-0.090-0.070-0.295-0.106-0.61-0.106-0.367 0.001-0.718 0.148-0.977 0.407s-0.404 0.612-0.404 0.979c0 0.313 0.035 0.517 0.105 0.61l1.886-1.89z">
                </path>
                <path fill="#fff" style="fill: var(--color2, #fff)" opacity="0.5"
                    d="M10.366 28.442c0.3-0.407 0.668-0.623 1.106-0.646v0.835c-0.26 0.002-0.509 0.104-0.698 0.283-0.126 0.119-0.227 0.262-0.297 0.421s-0.108 0.33-0.111 0.503v2.056h-0.8v-3.991h0.804l-0.004 0.54z">
                </path>
                <path fill="#fff" style="fill: var(--color2, #fff)" opacity="0.5"
                    d="M14.061 31.895l-1.906-3.994h0.908l1.199 2.593 1.204-2.593h0.908l-1.91 3.994h-0.404z"></path>
                <path fill="#fff" style="fill: var(--color2, #fff)" opacity="0.5"
                    d="M18.021 26.422c0.053 0.052 0.095 0.115 0.123 0.183s0.043 0.142 0.043 0.217-0.015 0.148-0.043 0.216c-0.029 0.069-0.070 0.131-0.123 0.183s-0.115 0.094-0.184 0.122-0.142 0.042-0.217 0.041c-0.073 0.001-0.146-0.013-0.214-0.041s-0.13-0.069-0.181-0.122c-0.053-0.052-0.096-0.114-0.124-0.183s-0.044-0.142-0.044-0.217c0-0.075 0.015-0.148 0.044-0.217s0.071-0.131 0.124-0.183c0.052-0.052 0.113-0.094 0.181-0.122s0.141-0.042 0.214-0.041c0.074-0.001 0.148 0.013 0.217 0.041s0.131 0.069 0.184 0.122zM18.021 31.895h-0.802v-3.994h0.802v3.994z">
                </path>
                <path fill="#fff" style="fill: var(--color2, #fff)" opacity="0.5"
                    d="M22.417 30.526l0.804 0.287c-0.13 0.189-0.273 0.369-0.427 0.54-0.309 0.309-0.703 0.52-1.132 0.605s-0.874 0.041-1.278-0.126c-0.404-0.168-0.75-0.451-0.992-0.815s-0.373-0.791-0.373-1.229 0.13-0.865 0.373-1.229c0.243-0.364 0.588-0.647 0.992-0.815s0.849-0.211 1.278-0.126c0.429 0.085 0.823 0.296 1.132 0.605 0.153 0.168 0.296 0.346 0.427 0.532l-0.804 0.294c-0.104-0.127-0.173-0.208-0.209-0.244-0.193-0.192-0.439-0.323-0.707-0.375s-0.545-0.025-0.797 0.080c-0.252 0.105-0.467 0.282-0.618 0.509s-0.232 0.494-0.232 0.766c0 0.273 0.081 0.54 0.232 0.766s0.366 0.404 0.618 0.509c0.252 0.105 0.529 0.133 0.797 0.080s0.514-0.183 0.707-0.375c0.034-0.036 0.102-0.116 0.206-0.24z">
                </path>
                <path fill="#fff" style="fill: var(--color2, #fff)" opacity="0.5"
                    d="M25.394 30.988c0.136 0.119 0.381 0.178 0.734 0.178 0.182 0.003 0.364-0.031 0.532-0.1s0.322-0.172 0.449-0.303c0.034-0.036 0.102-0.116 0.207-0.24l0.802 0.287c-0.13 0.189-0.273 0.37-0.426 0.54-0.302 0.3-0.684 0.506-1.1 0.594s-0.849 0.054-1.247-0.098c-0.397-0.152-0.742-0.416-0.993-0.759s-0.398-0.752-0.422-1.177c-0.024-0.425 0.074-0.848 0.284-1.218s0.523-0.671 0.9-0.868c0.377-0.197 0.803-0.28 1.227-0.241s0.827 0.201 1.161 0.464c0.065 0.054 0.128 0.112 0.19 0.174 0.026 0.026 0.099 0.107 0.221 0.245l-0.403 0.407-2.116 2.115zM26.738 28.505c-0.091-0.070-0.293-0.106-0.61-0.106-0.367 0.001-0.718 0.147-0.977 0.407s-0.404 0.612-0.404 0.979c0 0.313 0.035 0.517 0.105 0.61l1.886-1.89z">
                </path>
            </symbol>
        </symbol>
    </defs>
</svg>