<svg aria-hidden="true" style="position: absolute; width: 0; height: 0; overflow: hidden;" version="1.1"
    xmlns="http://www.w3.org/2000/svg" xmlns:xlink="http://www.w3.org/1999/xlink">
    <defs>
        <symbol id="icon-map-pin" viewBox="0 0 32 32">
            <path fill="#fff" style="fill: var(--color1, #fff)"
                d="M16 8.25c-0.939 0-1.858 0.279-2.639 0.8s-1.39 1.264-1.749 2.132c-0.36 0.868-0.454 1.823-0.27 2.744s0.636 1.768 1.3 2.432c0.664 0.664 1.511 1.117 2.432 1.3s1.876 0.089 2.744-0.27c0.868-0.36 1.61-0.968 2.132-1.749s0.801-1.7 0.801-2.639c0-1.26-0.5-2.468-1.391-3.359s-2.099-1.391-3.359-1.391zM16 16.25c-0.643 0-1.271-0.191-1.806-0.548s-0.951-0.865-1.197-1.458c-0.246-0.594-0.31-1.247-0.185-1.878s0.435-1.21 0.889-1.664c0.454-0.455 1.034-0.764 1.664-0.889s1.284-0.061 1.878 0.185c0.594 0.246 1.101 0.663 1.458 1.197s0.548 1.163 0.548 1.806c0 0.862-0.342 1.689-0.952 2.298s-1.436 0.952-2.298 0.952zM16 2.25c-2.85 0.003-5.582 1.137-7.598 3.152s-3.149 4.748-3.152 7.598c0 3.864 1.793 7.968 5.184 11.868 1.531 1.769 3.253 3.362 5.136 4.75 0.126 0.088 0.276 0.136 0.43 0.136s0.304-0.047 0.43-0.136c1.883-1.388 3.606-2.981 5.136-4.75 3.391-3.9 5.184-8 5.184-11.868-0.003-2.85-1.137-5.582-3.152-7.598s-4.748-3.149-7.598-3.152zM16 28.064c-1.875-1.448-9.25-7.611-9.25-15.064 0-2.453 0.975-4.806 2.709-6.541s4.087-2.709 6.541-2.709c2.453 0 4.806 0.975 6.541 2.709s2.709 4.087 2.709 6.541c0 7.452-7.375 13.616-9.25 15.064z">
            </path>
        </symbol>
        <symbol id="icon-email" viewBox="0 0 32 32">
            <path fill="#fff" style="fill: var(--color1, #fff)"
                d="M28.416 11.375l-12-8c-0.123-0.082-0.268-0.126-0.416-0.126s-0.293 0.044-0.416 0.126l-12 8c-0.103 0.069-0.187 0.162-0.245 0.271s-0.089 0.231-0.088 0.354v13c0 0.464 0.184 0.909 0.513 1.237s0.773 0.513 1.237 0.513h22c0.464 0 0.909-0.184 1.237-0.513s0.513-0.773 0.513-1.237v-13c0-0.124-0.030-0.245-0.088-0.354s-0.143-0.202-0.245-0.271zM16 4.901l10.679 7.125-8.737 6.224h-3.883l-8.737-6.229 10.679-7.12zM27 25.25h-22c-0.066 0-0.13-0.026-0.177-0.073s-0.073-0.11-0.073-0.177v-11.544l8.632 6.155c0.128 0.090 0.28 0.139 0.436 0.139h4.363c0.156-0 0.309-0.049 0.436-0.139l8.632-6.155v11.544c0 0.066-0.026 0.13-0.073 0.177s-0.11 0.073-0.177 0.073z">
            </path>
        </symbol>
        <symbol id="icon-phone-outline" viewBox="0 0 32 32">
            <path fill="#fff" style="fill: var(--color1, #fff)"
                d="M27.699 20.037l-5.905-2.646c-0.268-0.115-0.559-0.161-0.849-0.134s-0.569 0.125-0.811 0.287c-0.025 0.016-0.048 0.033-0.070 0.053l-3.086 2.625c-0.032 0.017-0.068 0.027-0.104 0.029s-0.073-0.006-0.106-0.021c-1.984-0.958-4.039-3-5-4.956-0.016-0.033-0.024-0.069-0.024-0.105s0.008-0.072 0.024-0.105l2.634-3.125c0.019-0.023 0.036-0.047 0.052-0.072 0.159-0.243 0.255-0.522 0.28-0.812s-0.024-0.581-0.14-0.847l-2.628-5.895c-0.149-0.348-0.407-0.638-0.735-0.827s-0.709-0.266-1.085-0.22c-1.633 0.215-3.133 1.017-4.218 2.257s-1.682 2.832-1.678 4.48c0 9.788 7.962 17.75 17.75 17.75 1.647 0.003 3.24-0.594 4.479-1.679s2.042-2.584 2.257-4.218c0.046-0.374-0.031-0.753-0.218-1.080s-0.474-0.585-0.82-0.736zM22 26.25c-8.96 0-16.25-7.29-16.25-16.25-0.004-1.283 0.459-2.523 1.302-3.489s2.010-1.592 3.281-1.761h0.029c0.050 0.001 0.099 0.017 0.14 0.046s0.072 0.070 0.090 0.117l2.638 5.889c0.015 0.033 0.023 0.068 0.023 0.104s-0.008 0.072-0.023 0.104l-2.639 3.132c-0.020 0.022-0.038 0.046-0.054 0.071-0.165 0.252-0.262 0.542-0.282 0.843s0.038 0.601 0.169 0.873c1.109 2.27 3.396 4.54 5.691 5.649 0.273 0.13 0.575 0.186 0.877 0.164s0.593-0.122 0.844-0.289c0.024-0.016 0.048-0.034 0.070-0.052l3.085-2.625c0.030-0.016 0.064-0.026 0.099-0.028s0.069 0.003 0.101 0.016l5.906 2.646c0.048 0.021 0.089 0.056 0.116 0.101s0.040 0.097 0.035 0.149c-0.168 1.272-0.793 2.439-1.759 3.284s-2.206 1.308-3.489 1.305z">
            </path>
        </symbol>
        <symbol id="icon-phone-yellow" viewBox="0 0 32 32">
            <path fill="#fdc70d" style="fill: var(--color2, #fdc70d)"
                d="M27.699 20.037l-5.905-2.646c-0.267-0.115-0.559-0.161-0.849-0.134s-0.568 0.125-0.811 0.287c-0.025 0.016-0.048 0.033-0.070 0.052l-3.086 2.625c-0.032 0.017-0.068 0.027-0.104 0.029s-0.073-0.006-0.106-0.021c-1.984-0.958-4.039-3-5-4.956-0.016-0.033-0.024-0.069-0.024-0.105s0.008-0.072 0.024-0.105l2.634-3.125c0.019-0.023 0.036-0.047 0.053-0.072 0.159-0.243 0.255-0.522 0.28-0.812s-0.024-0.581-0.14-0.847l-2.627-5.895c-0.149-0.348-0.407-0.638-0.735-0.827s-0.709-0.266-1.085-0.22c-1.633 0.215-3.133 1.017-4.218 2.257s-1.682 2.832-1.678 4.48c0 9.788 7.963 17.75 17.75 17.75 1.647 0.003 3.24-0.594 4.479-1.679s2.042-2.584 2.257-4.218c0.046-0.374-0.031-0.753-0.218-1.080s-0.474-0.585-0.82-0.736zM22 26.25c-8.96 0-16.25-7.29-16.25-16.25-0.004-1.283 0.459-2.523 1.302-3.489s2.010-1.592 3.281-1.761h0.029c0.050 0.001 0.099 0.017 0.14 0.046s0.072 0.070 0.090 0.117l2.637 5.889c0.015 0.033 0.023 0.068 0.023 0.104s-0.008 0.072-0.023 0.104l-2.639 3.133c-0.020 0.022-0.038 0.046-0.054 0.071-0.165 0.252-0.262 0.543-0.282 0.843s0.038 0.601 0.169 0.873c1.109 2.27 3.396 4.54 5.691 5.649 0.273 0.13 0.575 0.186 0.877 0.165s0.592-0.122 0.844-0.289c0.024-0.016 0.048-0.034 0.070-0.052l3.085-2.625c0.030-0.016 0.064-0.026 0.099-0.028s0.069 0.003 0.101 0.016l5.906 2.646c0.048 0.020 0.089 0.056 0.116 0.101s0.039 0.097 0.035 0.149c-0.168 1.272-0.793 2.439-1.759 3.284s-2.206 1.308-3.489 1.305z">
            </path>
        </symbol>
        <symbol id="icon-clipboard-text" viewBox="0 0 32 32">
            <path fill="#fdc70d" style="fill: var(--color2, #fdc70d)"
                d="M20.75 19c0 0.199-0.079 0.39-0.22 0.53s-0.331 0.22-0.53 0.22h-8c-0.199 0-0.39-0.079-0.53-0.22s-0.22-0.331-0.22-0.53c0-0.199 0.079-0.39 0.22-0.53s0.331-0.22 0.53-0.22h8c0.199 0 0.39 0.079 0.53 0.22s0.22 0.331 0.22 0.53zM20 14.25h-8c-0.199 0-0.39 0.079-0.53 0.22s-0.22 0.331-0.22 0.53c0 0.199 0.079 0.39 0.22 0.53s0.331 0.22 0.53 0.22h8c0.199 0 0.39-0.079 0.53-0.22s0.22-0.331 0.22-0.53c0-0.199-0.079-0.39-0.22-0.53s-0.331-0.22-0.53-0.22zM26.75 6v21c0 0.464-0.184 0.909-0.513 1.237s-0.773 0.513-1.237 0.513h-18c-0.464 0-0.909-0.184-1.237-0.513s-0.513-0.773-0.513-1.237v-21c0-0.464 0.184-0.909 0.513-1.237s0.773-0.513 1.237-0.513h4.646c0.539-0.627 1.207-1.131 1.958-1.476s1.569-0.524 2.396-0.524c0.827 0 1.644 0.179 2.396 0.524s1.419 0.849 1.958 1.476h4.646c0.464 0 0.909 0.184 1.237 0.513s0.513 0.773 0.513 1.237zM11.75 8v0.25h8.5v-0.25c0-1.127-0.448-2.208-1.245-3.005s-1.878-1.245-3.005-1.245-2.208 0.448-3.005 1.245c-0.797 0.797-1.245 1.878-1.245 3.005zM25.25 6c0-0.066-0.026-0.13-0.073-0.177s-0.11-0.073-0.177-0.073h-3.709c0.303 0.711 0.459 1.477 0.459 2.25v1c0 0.199-0.079 0.39-0.22 0.53s-0.331 0.22-0.53 0.22h-10c-0.199 0-0.39-0.079-0.53-0.22s-0.22-0.331-0.22-0.53v-1c-0.001-0.773 0.155-1.539 0.459-2.25h-3.709c-0.066 0-0.13 0.026-0.177 0.073s-0.073 0.11-0.073 0.177v21c0 0.066 0.026 0.13 0.073 0.177s0.11 0.073 0.177 0.073h18c0.066 0 0.13-0.026 0.177-0.073s0.073-0.11 0.073-0.177v-21z">
            </path>
        </symbol>
        <symbol id="icon-address-book" viewBox="0 0 32 32">
            <path fill="#fdc70d" style="fill: var(--color2, #fdc70d)"
                d="M19.889 17.766c0.788-0.604 1.367-1.439 1.656-2.389s0.273-1.966-0.046-2.907c-0.319-0.94-0.924-1.757-1.731-2.335s-1.775-0.889-2.768-0.889-1.961 0.311-2.768 0.889c-0.807 0.578-1.412 1.395-1.731 2.335s-0.335 1.957-0.046 2.907c0.289 0.95 0.868 1.785 1.656 2.389-1.479 0.552-2.767 1.519-3.711 2.784-0.119 0.159-0.171 0.359-0.142 0.556s0.133 0.375 0.292 0.494c0.159 0.119 0.359 0.171 0.556 0.142s0.375-0.133 0.494-0.292c0.629-0.838 1.444-1.519 2.381-1.988s1.971-0.713 3.019-0.713 2.081 0.244 3.019 0.713c0.937 0.469 1.752 1.149 2.381 1.988 0.119 0.159 0.297 0.264 0.494 0.292s0.397-0.023 0.556-0.142 0.264-0.297 0.292-0.494c0.028-0.197-0.023-0.397-0.142-0.556-0.944-1.265-2.233-2.231-3.711-2.784zM13.75 14c0-0.643 0.191-1.271 0.548-1.806s0.865-0.951 1.459-1.197c0.594-0.246 1.247-0.31 1.878-0.185s1.21 0.435 1.664 0.889c0.455 0.455 0.764 1.034 0.889 1.664s0.061 1.284-0.185 1.878c-0.246 0.594-0.663 1.101-1.197 1.458s-1.163 0.548-1.806 0.548c-0.862 0-1.689-0.342-2.298-0.952s-0.952-1.436-0.952-2.298zM26 3.25h-18c-0.464 0-0.909 0.184-1.237 0.513s-0.513 0.773-0.513 1.237v3.25h-2.25c-0.199 0-0.39 0.079-0.53 0.22s-0.22 0.331-0.22 0.53c0 0.199 0.079 0.39 0.22 0.53s0.331 0.22 0.53 0.22h2.25v5.5h-2.25c-0.199 0-0.39 0.079-0.53 0.22s-0.22 0.331-0.22 0.53c0 0.199 0.079 0.39 0.22 0.53s0.331 0.22 0.53 0.22h2.25v5.5h-2.25c-0.199 0-0.39 0.079-0.53 0.22s-0.22 0.331-0.22 0.53c0 0.199 0.079 0.39 0.22 0.53s0.331 0.22 0.53 0.22h2.25v3.25c0 0.464 0.184 0.909 0.513 1.237s0.773 0.513 1.237 0.513h18c0.464 0 0.909-0.184 1.237-0.513s0.513-0.773 0.513-1.237v-22c0-0.464-0.184-0.909-0.513-1.237s-0.773-0.513-1.237-0.513zM26.25 27c0 0.066-0.026 0.13-0.073 0.177s-0.11 0.073-0.177 0.073h-18c-0.066 0-0.13-0.026-0.177-0.073s-0.073-0.11-0.073-0.177v-22c0-0.066 0.026-0.13 0.073-0.177s0.11-0.073 0.177-0.073h18c0.066 0 0.13 0.026 0.177 0.073s0.073 0.11 0.073 0.177v22z">
            </path>
        </symbol>
        <symbol id="icon-tire" viewBox="0 0 32 32">
            <path fill="#fdc70d" style="fill: var(--color2, #fdc70d)"
                d="M20.129 4.645c-3.991 0-7.226 3.235-7.226 7.226s3.235 7.226 7.226 7.226c3.991 0 7.226-3.235 7.226-7.226s-3.235-7.226-7.226-7.226zM20.129 14.968c-1.71 0-3.097-1.386-3.097-3.097s1.386-3.097 3.097-3.097c1.71 0 3.097 1.386 3.097 3.097s-1.386 3.097-3.097 3.097z">
            </path>
            <path fill="#fdc70d" style="fill: var(--color2, #fdc70d)" d="M31.484 26.323h-20.645v2.065h20.645v-2.065z">
            </path>
            <path fill="#fdc70d" style="fill: var(--color2, #fdc70d)" d="M7.742 6.71h-2.065v24.774h2.065v-24.774z">
            </path>
            <path fill="#222" style="fill: var(--color3, #222)"
                d="M29.935 22.71h-4.974c4.143-1.854 7.038-6.013 7.038-10.839 0-6.546-5.325-11.871-11.871-11.871-4.4 0-8.362 2.381-10.441 6.234-0.129-0.025-0.261-0.040-0.397-0.040h-5.161c-1.139 0-2.065 0.926-2.065 2.065v4.326l-1.209 0.604c-0.527 0.264-0.856 0.795-0.856 1.385v9.046c0 0.59 0.328 1.121 0.856 1.385l1.209 0.604v4.326c0 1.139 0.926 2.065 2.065 2.065h25.806c1.139 0 2.065-0.926 2.065-2.065v-5.161c0-1.139-0.926-2.065-2.065-2.065zM24.259 23.742l-0.826 0.619 0.619 0.826 1.927-1.445h3.957c0.569 0 1.032 0.463 1.032 1.032v1.032h-1.377l-1.927-1.445-0.619 0.826 0.826 0.619h-5.506l-1.927-1.445-0.619 0.826 0.826 0.619h-6.022l-1.575-1.181c0.21-0.245 0.337-0.552 0.363-0.883h3.106l-0.826 0.619 0.619 0.826 1.927-1.445h6.022zM15.302 22.71h-1.882v-1.047c0.595 0.408 1.227 0.755 1.882 1.047zM12.387 23.62c0 0.197-0.109 0.374-0.285 0.462l-0.747 0.373v-10.717l0.747 0.374c0.176 0.088 0.285 0.264 0.285 0.461v9.047zM11.355 25.609l0.772-0.386 0.777 0.583h-1.549v-0.197zM14.104 2.856l2.587 0.693 0.267-0.997-1.586-0.425c1.247-0.607 2.617-0.98 4.051-1.071l1.889 1.889 0.73-0.73-1.145-1.144c1.44 0.102 2.8 0.485 4.031 1.097l0.687 2.565 0.997-0.267-0.422-1.575c1.164 0.789 2.166 1.799 2.949 2.968l-0.69 2.574 0.997 0.267 0.418-1.56c0.602 1.234 0.975 2.596 1.067 4.036l-1.878 1.878 0.73 0.73 1.144-1.144c-0.102 1.44-0.485 2.8-1.097 4.031l-2.565 0.687 0.267 0.997 1.575-0.422c-0.789 1.164-1.799 2.166-2.968 2.949l-2.574-0.69-0.267 0.997 1.56 0.418c-1.234 0.602-2.596 0.975-4.036 1.067l-1.878-1.878-0.73 0.73 1.15 1.15c-1.408-0.1-2.778-0.476-4.036-1.097l-0.688-2.57-0.997 0.267 0.422 1.575c-0.222-0.15-0.437-0.311-0.647-0.477v-5.802c0-0.59-0.328-1.121-0.856-1.385l-1.209-0.604v-4.326c0-0.499-0.185-0.95-0.48-1.307l2.116-0.567-0.267-0.997-1.58 0.423c0.797-1.186 1.805-2.181 2.961-2.954zM1.318 24.082c-0.176-0.088-0.285-0.264-0.285-0.461v-9.047c0-0.197 0.109-0.374 0.285-0.462l0.747-0.373v10.717l-0.747-0.374zM3.097 29.935v-4.646l0.619 0.826 0.826-0.619-1.445-1.927v-5.808l0.667 0.667 0.73-0.73-1.397-1.397v-5.766l0.667 0.667 0.73-0.73-1.397-1.397v-0.819c0-0.569 0.463-1.032 1.032-1.032h1.032v2.065h1.032v-2.065h1.032v23.742h-1.032v-20.645h-1.032v2.367l-1.397 1.397 0.73 0.73 0.667-0.667v5.808l-1.445 1.927 0.826 0.619 0.619-0.826v5.506l-1.445 1.926 0.826 0.619 0.619-0.826v2.065h-1.032c-0.569 0-1.032-0.463-1.032-1.032zM8.258 30.968v-2.065l0.619 0.826 0.826-0.619-1.445-1.927v-5.506l0.619 0.826 0.826-0.619-1.445-1.927v-6.022l0.619 0.826 0.826-0.619-1.445-1.927v-4.989h1.032c0.569 0 1.032 0.463 1.032 1.032v0.344l-1.445 1.927 0.826 0.619 0.619-0.826v5.506l-1.445 1.927 0.826 0.619 0.619-0.826v6.022l-1.445 1.927 0.826 0.619 0.619-0.826v4.646c0 0.569-0.463 1.032-1.032 1.032h-1.032zM29.935 30.968h-3.957l-1.927-1.445-0.619 0.826 0.826 0.619h-6.022l-1.927-1.445-0.619 0.826 0.826 0.619h-5.448c0.178-0.305 0.287-0.654 0.287-1.032v-1.032h1.549l-0.826 0.619 0.619 0.826 1.927-1.445h1.893v-1.032h-5.161v-1.032h19.613v1.032h-13.419v1.032h3.097l-0.826 0.619 0.619 0.826 1.927-1.445h5.506l-0.826 0.619 0.619 0.826 1.927-1.445h1.377v1.032c0 0.569-0.463 1.032-1.032 1.032z">
            </path>
            <path fill="#222" style="fill: var(--color3, #222)"
                d="M20.129 15.484c1.992 0 3.613-1.621 3.613-3.613s-1.621-3.613-3.613-3.613c-1.992 0-3.613 1.621-3.613 3.613s1.621 3.613 3.613 3.613zM20.129 9.29c1.423 0 2.581 1.158 2.581 2.581s-1.158 2.581-2.581 2.581c-1.423 0-2.581-1.158-2.581-2.581s1.158-2.581 2.581-2.581z">
            </path>
            <path fill="#222" style="fill: var(--color3, #222)" d="M20.645 6.194h-1.032v1.032h1.032v-1.032z"></path>
            <path fill="#222" style="fill: var(--color3, #222)"
                d="M15.552 10.927l0.319-0.982-0.982-0.319-0.319 0.982 0.982 0.319z"></path>
            <path fill="#222" style="fill: var(--color3, #222)"
                d="M17.209 16.768l0.606-0.835-0.835-0.607-0.606 0.835 0.835 0.607z"></path>
            <path fill="#222" style="fill: var(--color3, #222)"
                d="M23.048 16.764l0.835-0.607-0.607-0.834-0.835 0.607 0.607 0.834z"></path>
            <path fill="#222" style="fill: var(--color3, #222)"
                d="M24.703 10.926l0.982-0.319-0.319-0.982-0.982 0.319 0.319 0.982z"></path>
        </symbol>
        <symbol id="icon-car-wash" viewBox="0 0 32 32">
            <path fill="#fdc70d" style="fill: var(--color2, #fdc70d)"
                d="M23.353 22.194h-14.707l0.992-4.465c0.159-0.714 0.78-1.213 1.512-1.213h9.699c0.731 0 1.353 0.498 1.512 1.213l0.992 4.465z">
            </path>
            <path fill="#fdc70d" style="fill: var(--color2, #fdc70d)"
                d="M8.774 26.323c-0.854 0-1.548-0.695-1.548-1.548s0.695-1.548 1.548-1.548c0.854 0 1.548 0.695 1.548 1.548s-0.695 1.548-1.548 1.548z">
            </path>
            <path fill="#fdc70d" style="fill: var(--color2, #fdc70d)"
                d="M23.226 26.323c-0.854 0-1.548-0.695-1.548-1.548s0.695-1.548 1.548-1.548c0.854 0 1.548 0.695 1.548 1.548s-0.695 1.548-1.548 1.548z">
            </path>
            <path fill="#fdc70d" style="fill: var(--color2, #fdc70d)"
                d="M10.323 9.29c-0.854 0-1.548-0.695-1.548-1.548 0-0.44 0.129-0.865 0.373-1.232l1.175-1.763 1.175 1.763c0.244 0.367 0.373 0.792 0.373 1.232 0 0.854-0.695 1.548-1.548 1.548z">
            </path>
            <path fill="#fdc70d" style="fill: var(--color2, #fdc70d)"
                d="M20.645 9.29c-0.854 0-1.548-0.695-1.548-1.548 0-0.44 0.129-0.865 0.373-1.232l1.175-1.763 1.175 1.763c0.244 0.367 0.373 0.792 0.373 1.232 0 0.854-0.695 1.548-1.548 1.548z">
            </path>
            <path fill="#222" style="fill: var(--color3, #222)"
                d="M24.255 17.308c-0.071-0.332-0.199-0.64-0.354-0.929 0.545-0.485 0.873-1.183 0.873-1.927 0-1.423-1.158-2.581-2.581-2.581-0.209 0-0.417 0.025-0.619 0.075-0.382-0.375-0.9-0.591-1.446-0.591-1.139 0-2.064 0.926-2.064 2.065h1.032c0-0.569 0.463-1.032 1.032-1.032 0.34 0 0.657 0.168 0.851 0.45l0.236 0.344 0.386-0.159c0.19-0.078 0.389-0.118 0.591-0.118 0.854 0 1.548 0.695 1.548 1.548 0 0.414-0.167 0.806-0.452 1.093-0.664-0.674-1.577-1.093-2.568-1.093h-9.444c-0.636 0-1.242 0.17-1.77 0.469-0.426-0.131-0.733-0.53-0.733-0.985 0-0.726 0.787-1.283 1.501-0.912l0.481 0.248 0.226-0.492c0.252-0.552 0.803-0.908 1.405-0.908 0.488 0 0.938 0.229 1.236 0.628l0.311 0.417 0.414-0.314c0.184-0.14 0.398-0.214 0.619-0.214v-1.032c-0.288 0-0.568 0.060-0.828 0.177-0.474-0.445-1.092-0.693-1.752-0.693-0.841 0-1.624 0.417-2.102 1.091-0.157-0.039-0.317-0.059-0.478-0.059-1.139 0-2.065 0.926-2.065 2.065 0 0.687 0.353 1.307 0.889 1.685-0.43 0.464-0.747 1.038-0.886 1.687l-0.383 1.789h-3.233v2.065c0 0.854 0.695 1.548 1.548 1.548h0.136c-0.41 0.586-0.652 1.297-0.652 2.065v2.065c-0.57 0.004-1.032 0.465-1.032 1.032v1.032c0 0.569 0.466 1.032 1.039 1.032h0.51v0.516c0 0.854 0.695 1.548 1.548 1.548h2.065c0.854 0 1.548-0.695 1.548-1.548v-0.516h10.323v0.516c0 0.854 0.695 1.548 1.548 1.548h2.065c0.854 0 1.548-0.695 1.548-1.548v-0.516h0.51c0.573 0 1.039-0.463 1.039-1.032v-1.032c0-0.567-0.462-1.028-1.032-1.032v-2.065c0-0.767-0.243-1.479-0.652-2.065h0.136c0.854 0 1.548-0.695 1.548-1.548v-2.065h-3.233l-0.383-1.789zM25.806 26.839h-19.613v-2.065c0-1.423 1.158-2.581 2.581-2.581h1.675l1.032 3.613h9.037l1.032-3.613h1.675c1.423 0 2.581 1.158 2.581 2.581v2.065zM11.523 22.194h8.954l-0.737 2.581h-7.48l-0.737-2.581zM8.755 17.524c0.254-1.183 1.314-2.040 2.523-2.040h9.445c1.209 0 2.27 0.858 2.523 2.040l0.8 3.735c-0.265-0.062-0.538-0.098-0.821-0.098h-14.452c-0.282 0-0.556 0.036-0.82 0.098l0.8-3.735zM5.161 21.161v-1.032h1.979l-0.332 1.548h-1.131c-0.284 0-0.516-0.231-0.516-0.516zM9.806 30.452c0 0.285-0.232 0.516-0.516 0.516h-2.065c-0.284 0-0.516-0.231-0.516-0.516v-0.516h3.097v0.516zM25.29 30.452c0 0.285-0.232 0.516-0.516 0.516h-2.065c-0.284 0-0.516-0.231-0.516-0.516v-0.516h3.097v0.516zM26.832 28.903h-21.671l0.006-1.032h21.671l-0.006 1.032zM26.839 20.129v1.032c0 0.285-0.232 0.516-0.516 0.516h-1.131l-0.332-1.548h1.979z">
            </path>
            <path fill="#222" style="fill: var(--color3, #222)"
                d="M5.777 7.955l1.691-2.325 0.835 0.607-1.691 2.325-0.834-0.607z"></path>
            <path fill="#222" style="fill: var(--color3, #222)"
                d="M12.345 6.237l0.834-0.607 1.691 2.325-0.834 0.607-1.691-2.325z"></path>
            <path fill="#222" style="fill: var(--color3, #222)"
                d="M16.1 7.954l1.691-2.325 0.834 0.607-1.691 2.325-0.834-0.607z"></path>
            <path fill="#222" style="fill: var(--color3, #222)"
                d="M22.668 6.236l0.834-0.607 1.691 2.325-0.834 0.607-1.691-2.325z"></path>
            <path fill="#222" style="fill: var(--color3, #222)"
                d="M2.064 18.065c-0.569 0-1.032-0.463-1.032-1.032s0.463-1.032 1.032-1.032h0.516v-0.516c0-0.854 0.695-1.548 1.548-1.548s1.548 0.695 1.548 1.548h1.032c0-1.423-1.158-2.581-2.581-2.581-1.266 0-2.322 0.916-2.539 2.119-0.911 0.215-1.59 1.035-1.59 2.010 0 1.139 0.926 2.065 2.064 2.065v-1.032z">
            </path>
            <path fill="#222" style="fill: var(--color3, #222)" d="M3.613 15.484h1.032v1.032h-1.032v-1.032z"></path>
            <path fill="#222" style="fill: var(--color3, #222)" d="M2.064 20.129h1.032v1.032h-1.032v-1.032z"></path>
            <path fill="#222" style="fill: var(--color3, #222)" d="M27.355 15.484h1.032v1.032h-1.032v-1.032z"></path>
            <path fill="#222" style="fill: var(--color3, #222)"
                d="M5.161 0v3.097h4.148l-1.273 1.751 0.835 0.607 1.452-1.997 1.452 1.997 0.835-0.607-1.273-1.751h8.296l-1.273 1.751 0.835 0.607 1.452-1.997 1.452 1.997 0.835-0.607-1.273-1.751h5.483l1.762 1.762v8.269c-0.318-0.139-0.664-0.225-1.032-0.225-1.423 0-2.581 1.158-2.581 2.581h1.032c0-0.854 0.695-1.548 1.548-1.548s1.548 0.695 1.548 1.548v0.516h0.516c0.569 0 1.032 0.463 1.032 1.032s-0.463 1.032-1.032 1.032v1.032c0.378 0 0.727-0.109 1.032-0.287v12.158h-1.032v-10.839h-1.032v11.871h3.097v-32h-26.839zM6.194 1.032h24.774v1.032h-24.774v-1.032zM30.41 15.022c-0.072-0.398-0.242-0.759-0.475-1.072v-9.519l-1.335-1.335h2.367v12.154c-0.172-0.101-0.358-0.181-0.557-0.229z">
            </path>
            <path fill="#222" style="fill: var(--color3, #222)" d="M16.516 10.323h1.032v1.032h-1.032v-1.032z"></path>
            <path fill="#222" style="fill: var(--color3, #222)" d="M6.194 10.323h1.032v1.032h-1.032v-1.032z"></path>
            <path fill="#222" style="fill: var(--color3, #222)" d="M25.29 10.323h1.032v1.032h-1.032v-1.032z"></path>
        </symbol>
        <symbol id="icon-service" viewBox="0 0 32 32">
            <path fill="#222" style="fill: var(--color3, #222)" d="M19.097 29.419h6.71v1.032h-6.71v-1.032z"></path>
            <path fill="#222" style="fill: var(--color3, #222)"
                d="M10.323 25.806c0-0.569-0.463-1.032-1.032-1.032h-2.065v-12.903h-1.032v12.903h-2.065v-12.903h-1.032v12.903h-2.065c-0.569 0-1.032 0.463-1.032 1.032v2.065c0 0.189 0.055 0.364 0.143 0.516-0.089 0.152-0.143 0.327-0.143 0.516v2.065c0 0.569 0.463 1.032 1.032 1.032h8.258c0.569 0 1.032-0.463 1.032-1.032v-2.065c0-0.189-0.055-0.364-0.143-0.516 0.089-0.152 0.143-0.327 0.143-0.516v-2.065zM9.29 27.871h-1.1l0.688-1.032-0.688-1.032h1.1v2.065zM7.638 29.936l-0.688 1.032h-1.34l0.688-1.032-0.688-1.032h1.34l0.688 1.032zM6.95 25.806l0.688 1.032-0.688 1.032h-1.34l0.688-1.032-0.688-1.032h1.34zM5.057 26.839l-0.688 1.032h-1.34l0.688-1.032-0.688-1.032h1.34l0.688 1.032zM4.369 28.903l0.688 1.032-0.688 1.032h-1.34l0.688-1.032-0.688-1.032h1.34zM1.032 25.806h0.756l0.688 1.032-0.688 1.032h-0.756v-2.065zM1.032 28.903h0.756l0.688 1.032-0.688 1.032h-0.756v-2.065zM8.191 30.968l0.688-1.032-0.688-1.032h1.1l0.001 2.065h-1.101z">
            </path>
            <path fill="#fdc70d" style="fill: var(--color2, #fdc70d)" d="M8.258 12.387h-6.194v-3.097h6.194v3.097z">
            </path>
            <path fill="#222" style="fill: var(--color3, #222)"
                d="M26.839 22.71h-6.923l-2.367 2.367v0.646c0 1.138 0.183 2.263 0.543 3.344l0.979-0.327c-0.316-0.949-0.478-1.935-0.486-2.934h8.155c-0.13 0.925-0.388 1.834-0.785 2.676l0.934 0.441c0.643-1.365 0.984-2.884 0.984-4.392v-0.789c0-0.569-0.463-1.032-1.032-1.032zM19.311 24.774l1.032-1.032h6.496v0.789c0 0.081-0.011 0.162-0.013 0.244h-7.515z">
            </path>
            <path fill="#222" style="fill: var(--color3, #222)" d="M19.613 26.839h2.064v1.032h-2.064v-1.032z"></path>
            <path fill="#222" style="fill: var(--color3, #222)"
                d="M32 9.29v-7.226c0-0.569-0.463-1.032-1.032-1.032h-4.129v0.010c-0.864-0.651-1.934-1.042-3.097-1.042-1.44 0-2.742 0.594-3.679 1.548h-4.881l-1.548-1.548h-2.951l-1.548 1.032h-8.102c-0.569 0-1.032 0.463-1.032 1.032v7.226c0 0.569 0.463 1.032 1.032 1.032h9.29v2.065h1.032v11.871h1.032v-11.871h15.484v8.258h-8.325c-0.428 0-0.841 0.18-1.133 0.493l-2.584 2.772c-0.068 0.073-0.154 0.123-0.251 0.148l-3.051 0.763c-0.69 0.172-1.173 0.79-1.173 1.502v2.581c0 0.854 0.695 1.548 1.548 1.548h3.097v-1.032h-3.097c-0.285 0-0.516-0.231-0.516-0.516v-1.552c1.11-0.009 2.206-0.188 3.26-0.539l-0.327-0.979c-0.949 0.316-1.935 0.478-2.933 0.486 0.002-0.236 0.162-0.44 0.39-0.498l3.051-0.763c0.292-0.073 0.554-0.227 0.757-0.446l2.583-2.771c0.097-0.104 0.234-0.164 0.377-0.164h8.054c0.839 1.206 1.303 2.66 1.303 4.129v0.516h2.065v1.032h-1.548v1.032h1.548v0.516c0 0.285-0.231 0.516-0.516 0.516h-1.548v1.032h1.548c0.854 0 1.548-0.695 1.548-1.548v-4.012c0-0.394-0.148-0.769-0.416-1.055l-0.616-0.662v-12.851c0.569 0 1.032-0.463 1.032-1.032zM30.968 9.29h-4.142c0.995-0.745 1.716-1.836 1.974-3.097h2.169v3.097zM24.679 6.99c0.228-0.117 0.43-0.273 0.599-0.463l0.578 1.167 1.198-0.078c-0.612 0.823-1.519 1.411-2.567 1.603l-0.641-0.961 0.841-1.262-0.008-0.006zM30.968 2.064v3.097h-2.065c0-1.162-0.391-2.233-1.042-3.097h3.107zM27.527 3.516c0.22 0.504 0.344 1.061 0.344 1.645 0 0.486-0.089 0.95-0.244 1.384l-1.151 0.074-0.672-1.36-0.007 0.003c0.002-0.034 0.010-0.067 0.010-0.102 0-0.228-0.046-0.443-0.114-0.648l1.3 0.084 0.535-1.082zM24.209 1.061c1.068 0.121 2.011 0.65 2.674 1.427l-0.511 1.035-1.514-0.098-0.001 0.004c-0.21-0.136-0.444-0.237-0.696-0.289l0.718-1.076-0.67-1.004zM24.774 5.161c0 0.569-0.463 1.032-1.032 1.032s-1.032-0.463-1.032-1.032 0.463-1.032 1.032-1.032c0.569 0 1.032 0.463 1.032 1.032zM23.275 9.262c-1.068-0.121-2.011-0.65-2.674-1.427l0.511-1.035 1.514 0.098 0.001-0.004c0.21 0.136 0.444 0.237 0.696 0.289l-0.718 1.076 0.67 1.004zM22.997 1.103l0.641 0.961-0.841 1.262 0.008 0.006c-0.228 0.117-0.43 0.273-0.599 0.463l-0.578-1.167-1.198 0.078c0.612-0.823 1.519-1.411 2.567-1.603zM19.857 3.777l1.151-0.074 0.672 1.36 0.007-0.004c-0.002 0.034-0.010 0.067-0.010 0.102 0 0.228 0.046 0.443 0.114 0.648l-1.3-0.084-0.535 1.082c-0.22-0.504-0.344-1.061-0.344-1.645 0-0.486 0.089-0.95 0.244-1.384zM9.806 1.825l1.189-0.792h2.21l1.548 1.548h4.525c-0.36 0.619-0.598 1.318-0.672 2.065h-3.853l-1.548 1.548h-2.21l-1.189-0.792v-0.24h2.581v-3.097h-2.581v-0.24zM1.032 9.29v-3.097h2.065v-1.032h-2.065v-3.097h7.742v1.032h2.581v1.032h-2.581v1.032h-4.645v1.032h5.005l1.548 1.032h2.951l1.548-1.548h3.425c0.148 1.477 0.923 2.768 2.052 3.613h-19.626zM11.355 11.355v-1.032h16.516v1.032h-16.516zM29.919 25.29c-0.048-0.757-0.205-1.503-0.456-2.217l1.367 1.466c0.089 0.095 0.138 0.221 0.138 0.352v0.399h-1.049zM29.071 21.139c-0.051-0.055-0.11-0.1-0.168-0.147v-10.669h1.032v11.743l-0.864-0.927z">
            </path>
            <path fill="#fdc70d" style="fill: var(--color2, #fdc70d)" d="M16 13.935h9.29v5.161h-9.29v-5.161z"></path>
            <path fill="#222" style="fill: var(--color3, #222)"
                d="M21.161 13.419h-5.677v6.194h10.323v-6.194h-4.645zM16.516 14.452h3.613v4.129h-3.613v-4.129zM24.774 18.581h-3.613v-4.129h3.613v4.129z">
            </path>
            <path fill="#fdc70d" style="fill: var(--color2, #fdc70d)"
                d="M17.548 32c-1.139 0-2.065-0.926-2.065-2.064s0.926-2.065 2.065-2.065 2.065 0.926 2.065 2.065c0 1.139-0.926 2.065-2.065 2.065z">
            </path>
            <path fill="#fdc70d" style="fill: var(--color2, #fdc70d)"
                d="M27.355 32c-1.139 0-2.064-0.926-2.064-2.064s0.926-2.065 2.064-2.065c1.139 0 2.065 0.926 2.065 2.065s-0.926 2.065-2.065 2.065z">
            </path>
        </symbol>
        <symbol id="icon-phone-white" viewBox="0 0 32 32">
            <path fill="#fff" style="fill: var(--color1, #fff)"
                d="M29.432 21.004c-1.959 0-3.883-0.306-5.706-0.909-0.893-0.305-1.991-0.025-2.537 0.535l-3.598 2.716c-4.173-2.228-6.743-4.797-8.94-8.938l2.636-3.504c0.685-0.684 0.931-1.683 0.636-2.621-0.605-1.832-0.912-3.755-0.912-5.715 0-1.416-1.152-2.568-2.568-2.568h-5.877c-1.416 0-2.568 1.152-2.568 2.568 0 16.229 13.203 29.432 29.432 29.432 1.416 0 2.568-1.152 2.568-2.568v-5.86c0-1.416-1.152-2.568-2.568-2.568z">
            </path>
        </symbol>
        <symbol id="icon-logo" viewBox="0 0 36 32">
            <path fill="#fdc70d" style="fill: var(--color2, #fdc70d)"
                d="M32 16c0 3.164-0.938 6.258-2.697 8.889s-4.257 4.682-7.181 5.893c-2.924 1.211-6.141 1.528-9.244 0.91s-5.955-2.141-8.192-4.379-3.761-5.089-4.379-8.192c-0.617-3.104-0.3-6.321 0.91-9.244s3.262-5.422 5.893-7.181c2.631-1.758 5.725-2.696 8.889-2.696 4.243 0 8.313 1.686 11.314 4.686s4.686 7.070 4.686 11.314z">
            </path>
            <path fill="#fff" style="fill: var(--color1, #fff)"
                d="M9.149 9.726c0.391-0.082 0.789-0.123 1.188-0.122 0.744-0.004 1.482 0.118 2.185 0.361 1.564 0.535 2.729 1.525 3.495 2.968 0.469 0.846 0.717 1.796 0.722 2.764-0 0.6-0.092 1.196-0.271 1.768-0.481 1.571-1.444 2.747-2.887 3.526-0.839 0.457-1.779 0.698-2.734 0.701-0.612-0.003-1.221-0.1-1.805-0.285-1.263-0.386-2.354-1.206-3.273-2.459l1.484-1.647c0.752 1.112 1.558 1.796 2.418 2.053 0.372 0.118 0.759 0.179 1.149 0.18 0.611-0.005 1.211-0.16 1.748-0.451 0.446-0.229 0.841-0.548 1.159-0.936s0.553-0.837 0.69-1.32c0.119-0.371 0.18-0.758 0.18-1.148-0.006-0.611-0.163-1.212-0.457-1.748-0.478-0.916-1.294-1.608-2.276-1.931-0.471-0.161-0.966-0.24-1.463-0.234-0.725 0-1.654 0.18-2.784 0.541l-1.274-1.1 1.829-5.053v-0.82h5.955v2.103h-4.177l-0.802 2.286z">
            </path>
            <path fill="#fff" style="fill: var(--color1, #fff)"
                d="M27.018 11.48c-1.684 1.886-2.986 3.483-3.907 4.791s-1.415 3.082-1.484 5.323h-2.144c0.081-2.771 0.644-4.886 1.687-6.346 1.16-1.604 2.406-3.143 3.733-4.612 1.444-1.616 2.219-2.681 2.327-3.196h-7.726v-2.103h10.111c-0.048 2.208-0.914 4.256-2.597 6.143z">
            </path>
            <path fill="#fff" style="fill: var(--color1, #fff)"
                d="M36.091 5.337v16.258h-2.103v-13.515h-1.555l2.134-2.743h1.524z"></path>
            <path fill="#fff" style="fill: var(--color1, #fff)"
                d="M12.572 15.704c0 0.38-0.113 0.752-0.324 1.068s-0.511 0.563-0.862 0.708c-0.351 0.146-0.738 0.184-1.111 0.11s-0.716-0.257-0.985-0.525c-0.269-0.269-0.452-0.611-0.527-0.984s-0.037-0.759 0.108-1.111c0.145-0.351 0.391-0.652 0.707-0.863s0.687-0.325 1.067-0.325c0.51 0 0.999 0.203 1.36 0.563s0.563 0.85 0.563 1.36z">
            </path>
            <path fill="#fff" style="fill: var(--color1, #fff)"
                d="M7.201 27.012c0.031 0.032 0.068 0.057 0.109 0.074s0.085 0.025 0.129 0.025c0.066-0 0.131-0.020 0.187-0.057s0.098-0.089 0.124-0.151c0.026-0.061 0.032-0.129 0.020-0.194s-0.044-0.125-0.091-0.173c-0.090-0.079-0.187-0.149-0.291-0.209-0.156-0.078-0.301-0.176-0.43-0.292-0.106-0.107-0.178-0.242-0.207-0.39s-0.013-0.3 0.045-0.439c0.058-0.139 0.156-0.257 0.281-0.34s0.272-0.127 0.423-0.127c0.097-0.003 0.193 0.015 0.283 0.051s0.171 0.091 0.239 0.16c0.094 0.090 0.161 0.206 0.19 0.334l-0.541 0.157c-0.007-0.032-0.020-0.063-0.038-0.090-0.017-0.016-0.038-0.029-0.060-0.037s-0.046-0.012-0.070-0.011c-0.026-0-0.052 0.004-0.076 0.014s-0.046 0.025-0.064 0.043c-0.019 0.018-0.034 0.040-0.044 0.064s-0.015 0.050-0.015 0.076c-0 0.026 0.004 0.051 0.014 0.075s0.024 0.045 0.043 0.063c0.071 0.061 0.146 0.117 0.226 0.168 0.177 0.090 0.341 0.203 0.487 0.336 0.085 0.082 0.152 0.18 0.197 0.289s0.068 0.225 0.067 0.343c0.002 0.119-0.020 0.236-0.065 0.346s-0.112 0.209-0.196 0.292c-0.083 0.084-0.182 0.151-0.291 0.196s-0.226 0.069-0.344 0.069-0.235-0.023-0.344-0.069c-0.109-0.045-0.208-0.112-0.291-0.196-0.122-0.123-0.205-0.28-0.238-0.451l0.561-0.123c0.008 0.065 0.034 0.126 0.076 0.176z">
            </path>
            <path fill="#fff" style="fill: var(--color1, #fff)"
                d="M9.895 26.978c0.090 0.083 0.265 0.125 0.512 0.125 0.127 0.002 0.254-0.022 0.372-0.070s0.225-0.12 0.314-0.211c0.023-0.025 0.071-0.081 0.143-0.168l0.561 0.2c-0.091 0.132-0.19 0.258-0.298 0.377-0.211 0.21-0.478 0.354-0.768 0.415s-0.593 0.038-0.871-0.069c-0.278-0.106-0.519-0.291-0.694-0.531s-0.278-0.526-0.295-0.822c-0.017-0.297 0.052-0.592 0.199-0.851s0.365-0.469 0.629-0.606c0.264-0.137 0.561-0.195 0.857-0.167s0.578 0.141 0.811 0.325c0.045 0.038 0.089 0.078 0.133 0.122 0.018 0.018 0.069 0.075 0.154 0.171l-0.282 0.284-1.479 1.475zM10.834 25.244c-0.063-0.049-0.206-0.074-0.426-0.074-0.256 0.001-0.502 0.103-0.682 0.285s-0.282 0.427-0.282 0.684c0 0.218 0.024 0.361 0.073 0.426l1.317-1.32z">
            </path>
            <path fill="#fff" style="fill: var(--color1, #fff)"
                d="M13.010 25.2c0.209-0.285 0.467-0.435 0.772-0.451v0.583c-0.182 0.002-0.356 0.072-0.487 0.198-0.088 0.083-0.158 0.183-0.207 0.294s-0.075 0.23-0.078 0.351v1.436h-0.559v-2.787h0.561l-0.003 0.377z">
            </path>
            <path fill="#fff" style="fill: var(--color1, #fff)"
                d="M15.59 27.611l-1.331-2.789h0.634l0.837 1.811 0.841-1.811h0.634l-1.334 2.789h-0.282z"></path>
            <path fill="#fff" style="fill: var(--color1, #fff)"
                d="M18.356 23.789c0.037 0.037 0.066 0.080 0.086 0.128s0.030 0.099 0.030 0.151c0 0.052-0.010 0.103-0.030 0.151s-0.049 0.091-0.086 0.128c-0.037 0.037-0.080 0.066-0.128 0.085s-0.099 0.029-0.151 0.029c-0.051 0.001-0.102-0.009-0.15-0.029s-0.090-0.048-0.126-0.085c-0.037-0.036-0.067-0.080-0.087-0.128s-0.031-0.099-0.031-0.151c0-0.052 0.010-0.104 0.031-0.151s0.050-0.091 0.087-0.128c0.036-0.037 0.079-0.065 0.126-0.085s0.098-0.029 0.15-0.029c0.052-0.001 0.103 0.009 0.151 0.029s0.092 0.048 0.128 0.085zM18.356 27.611h-0.56v-2.789h0.56v2.789z">
            </path>
            <path fill="#fff" style="fill: var(--color1, #fff)"
                d="M21.426 26.655l0.561 0.2c-0.091 0.132-0.19 0.258-0.298 0.377-0.216 0.216-0.491 0.363-0.791 0.422s-0.61 0.029-0.892-0.088-0.523-0.315-0.693-0.569c-0.17-0.254-0.26-0.553-0.26-0.858s0.091-0.604 0.26-0.858c0.17-0.254 0.411-0.452 0.693-0.569s0.593-0.148 0.892-0.088c0.3 0.060 0.575 0.207 0.791 0.422 0.107 0.118 0.206 0.242 0.298 0.372l-0.561 0.206c-0.072-0.088-0.121-0.145-0.146-0.171-0.135-0.134-0.307-0.225-0.494-0.262s-0.381-0.017-0.556 0.056c-0.176 0.073-0.326 0.197-0.432 0.355s-0.162 0.345-0.162 0.535c0 0.19 0.056 0.377 0.162 0.535s0.256 0.282 0.432 0.355c0.176 0.073 0.369 0.093 0.556 0.056s0.359-0.128 0.494-0.262c0.023-0.025 0.071-0.081 0.143-0.168z">
            </path>
            <path fill="#fff" style="fill: var(--color1, #fff)"
                d="M23.505 26.978c0.095 0.083 0.266 0.125 0.512 0.125 0.127 0.002 0.254-0.022 0.372-0.070s0.225-0.12 0.314-0.211c0.023-0.025 0.071-0.081 0.144-0.168l0.56 0.2c-0.091 0.132-0.19 0.258-0.298 0.377-0.211 0.209-0.478 0.353-0.768 0.415s-0.593 0.038-0.87-0.069c-0.277-0.106-0.518-0.29-0.694-0.53s-0.278-0.525-0.295-0.822 0.052-0.592 0.199-0.85c0.147-0.258 0.365-0.469 0.628-0.606s0.561-0.196 0.857-0.168 0.577 0.14 0.811 0.324c0.045 0.038 0.089 0.078 0.133 0.122 0.018 0.018 0.069 0.075 0.154 0.171l-0.281 0.284-1.478 1.477zM24.443 25.244c-0.063-0.049-0.205-0.074-0.426-0.074-0.256 0.001-0.502 0.103-0.683 0.285s-0.282 0.427-0.282 0.684c0 0.218 0.024 0.361 0.073 0.426l1.317-1.32z">
            </path>
        </symbol>
        <symbol id="icon-arrow-down" viewBox="0 0 59 32">
            <path fill="none" stroke="#fff" style="stroke: var(--color1, #fff)" stroke-linejoin="round"
                stroke-linecap="round" stroke-miterlimit="4" stroke-width="8" d="M8 5.333l21.333 21.333 21.333-21.333">
            </path>
        </symbol>
        <symbol id="icon-check" viewBox="0 0 41 32">
            <path fill="none" stroke="#fdc70d" style="stroke: var(--color1, #fdc70d)" stroke-linejoin="round"
                stroke-linecap="round" stroke-miterlimit="4" stroke-width="3.4286"
                d="M2.286 15.714l13.187 12.857 23.385-26.286"></path>
        </symbol>
        <symbol id="icon-swiper-arrow-right" viewBox="0 0 106 32">
            <path fill="#fdc70d" style="fill: var(--color1, #fdc70d)"
                d="M3 18c-1.105 0-2-0.895-2-2s0.895-2 2-2v4zM104.414 14.586c0.781 0.781 0.781 2.047 0 2.828l-12.728 12.728c-0.781 0.781-2.047 0.781-2.828 0s-0.781-2.047 0-2.828l11.314-11.314-11.314-11.314c-0.781-0.781-0.781-2.047 0-2.828s2.047-0.781 2.828 0l12.728 12.728zM3 14h100v4h-100v-4z">
            </path>
        </symbol>
        <symbol id="icon-swiper-arrow-left" viewBox="0 0 104 32">
            <path fill="#fdc70d" style="fill: var(--color1, #fdc70d)"
                d="M102 18c1.105 0 2-0.895 2-2s-0.895-2-2-2v4zM0.586 14.586c-0.781 0.781-0.781 2.047 0 2.828l12.728 12.728c0.781 0.781 2.047 0.781 2.828 0s0.781-2.047 0-2.828l-11.314-11.314 11.314-11.314c0.781-0.781 0.781-2.047 0-2.828s-2.047-0.781-2.828 0l-12.728 12.728zM102 14h-100v4h100v-4z">
            </path>
        </symbol>
    </defs>
</svg>