<svg aria-hidden="true" style="position: absolute; width: 0; height: 0; overflow: hidden;" version="1.1"
    xmlns="http://www.w3.org/2000/svg" xmlns:xlink="http://www.w3.org/1999/xlink">
    <defs>
        <symbol id="icon-call" viewBox="0 0 32 32">
            <path
                d="M29.432 21.004c-1.959 0-3.883-0.306-5.706-0.909-0.718-0.245-1.569-0.112-2.158 0.241-0.274 0.164-0.506 0.391-0.762 0.584-1.96 1.48-4.663 1.764-6.609 0.267-1.197-0.921-2.233-1.935-3.167-3.101-1.673-2.089-1.351-5.043 0.258-7.181 0.685-0.684 0.931-1.683 0.636-2.621-0.605-1.832-0.912-3.755-0.912-5.715 0-1.416-1.152-2.568-2.568-2.568h-5.877c-1.416 0-2.568 1.152-2.568 2.568 0 16.229 13.203 29.432 29.432 29.432 1.416 0 2.568-1.152 2.568-2.568v-5.86c0-1.416-1.152-2.568-2.568-2.568z">
            </path>
        </symbol>
        <symbol id="icon-header-menu" viewBox="0 0 56 32">
            <path fill="none" stroke="#fff" style="stroke: var(--color1, #fff)" stroke-linejoin="miter"
                stroke-linecap="round" stroke-miterlimit="4" stroke-width="1.3913" d="M54.582 1.391h-53.512"></path>
            <path fill="none" stroke="#fff" style="stroke: var(--color1, #fff)" stroke-linejoin="miter"
                stroke-linecap="round" stroke-miterlimit="4" stroke-width="1.3913" d="M54.582 11.13h-53.512"></path>
            <path fill="none" stroke="#fff" style="stroke: var(--color1, #fff)" stroke-linejoin="miter"
                stroke-linecap="round" stroke-miterlimit="4" stroke-width="1.3913" d="M54.582 20.87h-53.512"></path>
            <path fill="none" stroke="#fff" style="stroke: var(--color1, #fff)" stroke-linejoin="miter"
                stroke-linecap="round" stroke-miterlimit="4" stroke-width="1.3913" d="M54.582 30.609h-53.512"></path>
        </symbol>
        <symbol id="icon-header-cross" viewBox="0 0 31 32">
            <path fill="none" stroke="#fff" style="stroke: var(--color1, #fff)" stroke-linejoin="miter"
                stroke-linecap="round" stroke-miterlimit="4" stroke-width="1.0667" d="M30.076 30.286l-29.009-29.009">
            </path>
            <path fill="none" stroke="#fff" style="stroke: var(--color1, #fff)" stroke-linejoin="miter"
                stroke-linecap="round" stroke-miterlimit="4" stroke-width="1.0667" d="M30.076 1.067l-29.009 29.010">
            </path>
        </symbol>
        <symbol id="icon-tools" viewBox="0 0 32 32">
            <path
                d="M14.763 18.695l1.988 1.988c0.233 0.233 0.502 0.407 0.785 0.541l3.732-3.732c-0.134-0.283-0.307-0.551-0.54-0.785l-1.988-1.988-1.325 1.325-10.225-10.182 1.445-1.445-6.186-4.417-2.447 2.447 4.417 6.186 1.445-1.445 10.225 10.182-1.325 1.326z">
            </path>
            <path
                d="M12.736 23.24l2.027-1.895-2.651-2.651 1.325-1.325-1.325-1.325-3.352 3.22c-2.365-0.841-5.042-0.26-6.842 1.54-2.558 2.558-2.558 6.72 0 9.278s6.72 2.557 9.278 0c1.8-1.801 2.382-4.477 1.54-6.842zM4.569 27.431c-1.096-1.097-1.096-2.88 0-3.976s2.88-1.096 3.976 0c1.096 1.096 1.096 2.88 0 3.976s-2.88 1.096-3.976 0z">
            </path>
            <path
                d="M7.22 24.78c-0.366-0.366-0.96-0.366-1.325 0s-0.365 0.96 0 1.325c0.366 0.366 0.96 0.366 1.325 0s0.365-0.96 0-1.325z">
            </path>
            <path
                d="M30.619 24.003l-6.578-6.633-2.651 2.651 5.916 5.971-1.325 1.325-5.916-5.971-2.651 2.651 6.579 6.633c1.827 1.827 4.8 1.827 6.627 0s1.827-4.8 0-6.627z">
            </path>
            <path
                d="M19.252 8.771l-3.165 3.297 1.325 1.325 1.325-1.325 2.651 2.651 1.839-1.971c2.365 0.841 5.042 0.26 6.842-1.54 1.96-1.96 2.475-4.96 1.282-7.466l-0.143-0.3-3.789 3.789h-2.651v-2.651l3.789-3.789-0.3-0.143c-2.505-1.194-5.505-0.679-7.466 1.281-1.8 1.8-2.382 4.477-1.54 6.842z">
            </path>
        </symbol>
        <symbol id="icon-arrow-black" viewBox="0 0 32 32">
            <path fill="none" stroke="#242424" style="stroke: var(--color1, #242424)" stroke-linejoin="miter"
                stroke-linecap="butt" stroke-miterlimit="4" stroke-width="1.0667"
                d="M31.467 16c0 8.542-6.925 15.467-15.467 15.467s-15.467-6.925-15.467-15.467c0-8.542 6.925-15.467 15.467-15.467s15.467 6.925 15.467 15.467z">
            </path>
            <path fill="none" stroke="#242424" style="stroke: var(--color1, #242424)" stroke-linejoin="round"
                stroke-linecap="round" stroke-miterlimit="4" stroke-width="2.1333" d="M13 10l6 6-6 6"></path>
        </symbol>
        <symbol id="icon-arrow-yellow" viewBox="0 0 32 32">
            <path fill="none" stroke="#fdc70d" style="stroke: var(--color1, #fdc70d)" stroke-linejoin="miter"
                stroke-linecap="butt" stroke-miterlimit="4" stroke-width="1.0667"
                d="M31.467 16c0 8.542-6.925 15.467-15.467 15.467s-15.467-6.925-15.467-15.467c0-8.542 6.925-15.467 15.467-15.467s15.467 6.925 15.467 15.467z">
            </path>
            <path fill="none" stroke="#fdc70d" style="stroke: var(--color1, #fdc70d)" stroke-linejoin="round"
                stroke-linecap="round" stroke-miterlimit="4" stroke-width="2.1333" d="M13 10l6 6-6 6"></path>
        </symbol>
        <symbol id="icon-bg" viewBox="0 0 44 32">
            <path fill="#fff" style="fill: var(--color2, #fff)" opacity="0.5"
                d="M4.837 6.285c0.559-0.118 1.13-0.176 1.702-0.174 1.065-0.006 2.123 0.169 3.129 0.517 2.239 0.767 3.908 2.183 5.005 4.249 0.671 1.212 1.027 2.572 1.034 3.957-0.001 0.859-0.131 1.713-0.388 2.532-0.689 2.25-2.067 3.933-4.134 5.049-1.201 0.654-2.547 0.999-3.915 1.004-0.877-0.005-1.748-0.143-2.584-0.408-1.809-0.553-3.371-1.726-4.686-3.521l2.125-2.358c1.077 1.592 2.231 2.571 3.463 2.939 0.532 0.169 1.087 0.256 1.645 0.259 0.875-0.007 1.734-0.229 2.503-0.646 0.639-0.328 1.204-0.784 1.659-1.34s0.792-1.199 0.988-1.89c0.17-0.531 0.257-1.086 0.258-1.643-0.008-0.876-0.233-1.735-0.655-2.503-0.684-1.311-1.853-2.303-3.258-2.765-0.674-0.23-1.383-0.343-2.096-0.335-1.039 0-2.368 0.258-3.987 0.775l-1.824-1.575 2.619-7.235v-1.174h8.527v3.012h-5.981l-1.149 3.274z">
            </path>
            <path fill="#fff" style="fill: var(--color2, #fff)" opacity="0.5"
                d="M30.424 8.796c-2.412 2.701-4.276 4.988-5.594 6.86s-2.026 4.413-2.125 7.623h-3.070c0.116-3.968 0.922-6.997 2.416-9.087 1.661-2.296 3.445-4.501 5.345-6.605 2.067-2.313 3.178-3.839 3.332-4.576h-11.063v-3.012h14.478c-0.069 3.162-1.308 6.094-3.718 8.796z">
            </path>
            <path fill="#fff" style="fill: var(--color2, #fff)" opacity="0.5"
                d="M43.416 0v23.28h-3.012v-19.353h-2.226l3.056-3.928h2.182z"></path>
            <path fill="#fff" style="fill: var(--color2, #fff)" opacity="0.5"
                d="M9.739 14.845c0 0.544-0.161 1.077-0.464 1.529s-0.732 0.806-1.235 1.014c-0.503 0.209-1.056 0.263-1.59 0.157s-1.025-0.368-1.41-0.752c-0.385-0.385-0.648-0.875-0.754-1.409s-0.053-1.087 0.155-1.59c0.208-0.503 0.56-0.933 1.012-1.236s0.984-0.465 1.529-0.466c0.73 0 1.43 0.29 1.947 0.806s0.806 1.217 0.806 1.947z">
            </path>
            <path fill="#fff" style="fill: var(--color2, #fff)" opacity="0.5"
                d="M2.048 31.037c0.044 0.045 0.097 0.081 0.156 0.105s0.122 0.036 0.185 0.035c0.095-0 0.188-0.029 0.267-0.081s0.141-0.128 0.178-0.216 0.046-0.185 0.028-0.278c-0.018-0.093-0.064-0.179-0.131-0.247-0.129-0.113-0.268-0.213-0.416-0.3-0.223-0.112-0.43-0.252-0.616-0.419-0.152-0.153-0.255-0.347-0.296-0.558s-0.019-0.43 0.064-0.629c0.083-0.199 0.223-0.368 0.403-0.487s0.39-0.182 0.605-0.181c0.139-0.004 0.277 0.021 0.406 0.073s0.245 0.13 0.342 0.229c0.135 0.13 0.23 0.296 0.273 0.478l-0.775 0.225c-0.009-0.046-0.028-0.090-0.054-0.129-0.025-0.023-0.054-0.042-0.086-0.053s-0.066-0.017-0.1-0.016c-0.037-0.001-0.074 0.006-0.109 0.020s-0.066 0.035-0.092 0.062c-0.027 0.026-0.048 0.057-0.063 0.092s-0.022 0.072-0.021 0.109c-0.001 0.037 0.006 0.073 0.020 0.107s0.035 0.065 0.061 0.090c0.102 0.088 0.21 0.168 0.323 0.24 0.253 0.128 0.488 0.29 0.698 0.481 0.121 0.117 0.217 0.258 0.282 0.413s0.097 0.323 0.095 0.491c0.003 0.17-0.029 0.338-0.094 0.495s-0.16 0.299-0.281 0.418c-0.119 0.12-0.261 0.215-0.417 0.281s-0.324 0.099-0.493 0.099-0.337-0.034-0.493-0.099c-0.156-0.065-0.298-0.161-0.417-0.281-0.175-0.177-0.294-0.402-0.341-0.646l0.804-0.176c0.011 0.093 0.049 0.18 0.109 0.252z">
            </path>
            <path fill="#fff" style="fill: var(--color2, #fff)" opacity="0.5"
                d="M5.906 30.988c0.129 0.119 0.38 0.178 0.734 0.178 0.182 0.003 0.364-0.031 0.532-0.101s0.322-0.172 0.45-0.302c0.034-0.036 0.102-0.116 0.205-0.24l0.804 0.287c-0.13 0.189-0.273 0.37-0.426 0.54-0.302 0.3-0.684 0.507-1.101 0.595s-0.849 0.054-1.247-0.098c-0.397-0.152-0.743-0.416-0.994-0.76s-0.398-0.753-0.422-1.178c-0.024-0.425 0.075-0.848 0.285-1.218s0.523-0.671 0.901-0.868c0.378-0.196 0.804-0.28 1.228-0.24s0.827 0.202 1.161 0.465c0.065 0.054 0.128 0.112 0.19 0.174 0.026 0.026 0.099 0.107 0.221 0.245l-0.403 0.407-2.118 2.112zM7.25 28.505c-0.090-0.070-0.295-0.106-0.61-0.106-0.367 0.001-0.718 0.148-0.977 0.407s-0.404 0.612-0.404 0.979c0 0.313 0.035 0.517 0.105 0.61l1.886-1.89z">
            </path>
            <path fill="#fff" style="fill: var(--color2, #fff)" opacity="0.5"
                d="M10.366 28.442c0.3-0.407 0.668-0.623 1.106-0.646v0.835c-0.26 0.002-0.509 0.104-0.698 0.283-0.126 0.119-0.227 0.262-0.297 0.421s-0.108 0.33-0.111 0.503v2.056h-0.8v-3.991h0.804l-0.004 0.54z">
            </path>
            <path fill="#fff" style="fill: var(--color2, #fff)" opacity="0.5"
                d="M14.061 31.895l-1.906-3.994h0.908l1.199 2.593 1.204-2.593h0.908l-1.91 3.994h-0.404z"></path>
            <path fill="#fff" style="fill: var(--color2, #fff)" opacity="0.5"
                d="M18.021 26.422c0.053 0.052 0.095 0.115 0.123 0.183s0.043 0.142 0.043 0.217-0.015 0.148-0.043 0.216c-0.029 0.069-0.070 0.131-0.123 0.183s-0.115 0.094-0.184 0.122-0.142 0.042-0.217 0.041c-0.073 0.001-0.146-0.013-0.214-0.041s-0.13-0.069-0.181-0.122c-0.053-0.052-0.096-0.114-0.124-0.183s-0.044-0.142-0.044-0.217c0-0.075 0.015-0.148 0.044-0.217s0.071-0.131 0.124-0.183c0.052-0.052 0.113-0.094 0.181-0.122s0.141-0.042 0.214-0.041c0.074-0.001 0.148 0.013 0.217 0.041s0.131 0.069 0.184 0.122zM18.021 31.895h-0.802v-3.994h0.802v3.994z">
            </path>
            <path fill="#fff" style="fill: var(--color2, #fff)" opacity="0.5"
                d="M22.417 30.526l0.804 0.287c-0.13 0.189-0.273 0.369-0.427 0.54-0.309 0.309-0.703 0.52-1.132 0.605s-0.874 0.041-1.278-0.126c-0.404-0.168-0.75-0.451-0.992-0.815s-0.373-0.791-0.373-1.229 0.13-0.865 0.373-1.229c0.243-0.364 0.588-0.647 0.992-0.815s0.849-0.211 1.278-0.126c0.429 0.085 0.823 0.296 1.132 0.605 0.153 0.168 0.296 0.346 0.427 0.532l-0.804 0.294c-0.104-0.127-0.173-0.208-0.209-0.244-0.193-0.192-0.439-0.323-0.707-0.375s-0.545-0.025-0.797 0.080c-0.252 0.105-0.467 0.282-0.618 0.509s-0.232 0.494-0.232 0.766c0 0.273 0.081 0.54 0.232 0.766s0.366 0.404 0.618 0.509c0.252 0.105 0.529 0.133 0.797 0.080s0.514-0.183 0.707-0.375c0.034-0.036 0.102-0.116 0.206-0.24z">
            </path>
            <path fill="#fff" style="fill: var(--color2, #fff)" opacity="0.5"
                d="M25.394 30.988c0.136 0.119 0.381 0.178 0.734 0.178 0.182 0.003 0.364-0.031 0.532-0.1s0.322-0.172 0.449-0.303c0.034-0.036 0.102-0.116 0.207-0.24l0.802 0.287c-0.13 0.189-0.273 0.37-0.426 0.54-0.302 0.3-0.684 0.506-1.1 0.594s-0.849 0.054-1.247-0.098c-0.397-0.152-0.742-0.416-0.993-0.759s-0.398-0.752-0.422-1.177c-0.024-0.425 0.074-0.848 0.284-1.218s0.523-0.671 0.9-0.868c0.377-0.197 0.803-0.28 1.227-0.241s0.827 0.201 1.161 0.464c0.065 0.054 0.128 0.112 0.19 0.174 0.026 0.026 0.099 0.107 0.221 0.245l-0.403 0.407-2.116 2.115zM26.738 28.505c-0.091-0.070-0.293-0.106-0.61-0.106-0.367 0.001-0.718 0.147-0.977 0.407s-0.404 0.612-0.404 0.979c0 0.313 0.035 0.517 0.105 0.61l1.886-1.89z">
            </path>
        </symbol>
        <symbol id="icon-brackets" viewBox="0 0 35 32">
            <path fill="#fdc70d" style="fill: var(--color1, #fdc70d)"
                d="M35.048 32h-13.351v-13.033c0-8.999 4.45-15.321 13.351-18.967v7.564c-4.371 2.327-6.556 6.128-6.556 11.404h6.556v13.033zM13.351 32h-13.351v-13.033c0-8.999 4.45-15.321 13.351-18.967v7.564c-4.371 2.327-6.557 6.128-6.557 11.404h6.557v13.033z">
            </path>
        </symbol>
        <symbol id="icon-rating" viewBox="0 0 183 32">
            <path fill="#fdc70d" style="fill: var(--color1, #fdc70d)"
                d="M31.762 11.532c-0.208-0.645-0.78-1.103-1.457-1.164l-9.191-0.835-3.634-8.507c-0.268-0.623-0.878-1.027-1.556-1.027s-1.288 0.404-1.556 1.028l-3.634 8.505-9.193 0.835c-0.675 0.062-1.246 0.519-1.456 1.164s-0.016 1.352 0.495 1.798l6.947 6.093-2.049 9.024c-0.15 0.664 0.108 1.349 0.658 1.747 0.296 0.214 0.642 0.323 0.991 0.323 0.301 0 0.6-0.081 0.868-0.241l7.928-4.738 7.925 4.738c0.58 0.349 1.311 0.317 1.86-0.081 0.551-0.399 0.808-1.085 0.658-1.747l-2.049-9.024 6.948-6.092c0.511-0.447 0.706-1.153 0.496-1.799z">
            </path>
            <path fill="#fdc70d" style="fill: var(--color1, #fdc70d)"
                d="M69.253 11.532c-0.209-0.645-0.78-1.103-1.457-1.164l-9.191-0.835-3.634-8.507c-0.268-0.623-0.878-1.027-1.557-1.027s-1.288 0.404-1.556 1.028l-3.634 8.505-9.193 0.835c-0.675 0.062-1.246 0.519-1.455 1.164s-0.016 1.352 0.495 1.798l6.947 6.093-2.049 9.024c-0.15 0.664 0.108 1.349 0.658 1.747 0.296 0.214 0.642 0.323 0.991 0.323 0.301 0 0.6-0.081 0.868-0.241l7.928-4.738 7.925 4.738c0.58 0.349 1.311 0.317 1.86-0.081 0.551-0.399 0.808-1.085 0.658-1.747l-2.049-9.024 6.948-6.092c0.511-0.447 0.706-1.153 0.496-1.799z">
            </path>
            <path fill="#fdc70d" style="fill: var(--color1, #fdc70d)"
                d="M106.745 11.532c-0.209-0.645-0.78-1.103-1.457-1.164l-9.191-0.835-3.635-8.507c-0.268-0.623-0.878-1.027-1.556-1.027s-1.288 0.404-1.556 1.028l-3.635 8.505-9.193 0.835c-0.675 0.062-1.246 0.519-1.456 1.164s-0.016 1.352 0.495 1.798l6.947 6.093-2.049 9.024c-0.15 0.664 0.107 1.349 0.658 1.747 0.296 0.214 0.642 0.323 0.991 0.323 0.301 0 0.6-0.081 0.868-0.241l7.928-4.738 7.925 4.738c0.58 0.349 1.311 0.317 1.86-0.081 0.551-0.399 0.808-1.085 0.658-1.747l-2.049-9.024 6.948-6.092c0.511-0.447 0.706-1.153 0.496-1.799z">
            </path>
            <path fill="#fdc70d" style="fill: var(--color1, #fdc70d)"
                d="M144.237 11.532c-0.208-0.645-0.78-1.103-1.457-1.164l-9.191-0.835-3.634-8.507c-0.268-0.623-0.878-1.027-1.556-1.027s-1.288 0.404-1.557 1.028l-3.634 8.505-9.193 0.835c-0.675 0.062-1.246 0.519-1.456 1.164s-0.016 1.352 0.495 1.798l6.948 6.093-2.049 9.024c-0.15 0.664 0.108 1.349 0.658 1.747 0.296 0.214 0.642 0.323 0.991 0.323 0.301 0 0.6-0.081 0.868-0.241l7.928-4.738 7.925 4.738c0.58 0.349 1.311 0.317 1.86-0.081 0.551-0.399 0.808-1.085 0.658-1.747l-2.049-9.024 6.947-6.092c0.511-0.447 0.706-1.153 0.496-1.799z">
            </path>
            <path fill="#fdc70d" style="fill: var(--color1, #fdc70d)"
                d="M181.729 11.532c-0.208-0.645-0.78-1.103-1.457-1.164l-9.191-0.835-3.634-8.507c-0.268-0.623-0.878-1.027-1.556-1.027s-1.288 0.404-1.557 1.028l-3.634 8.505-9.193 0.835c-0.676 0.062-1.246 0.519-1.456 1.164s-0.016 1.352 0.495 1.798l6.948 6.093-2.049 9.024c-0.15 0.664 0.108 1.349 0.658 1.747 0.296 0.214 0.642 0.323 0.991 0.323 0.301 0 0.6-0.081 0.868-0.241l7.928-4.738 7.925 4.738c0.58 0.349 1.311 0.317 1.861-0.081 0.551-0.399 0.808-1.085 0.658-1.747l-2.049-9.024 6.947-6.092c0.511-0.447 0.706-1.153 0.496-1.799z">
            </path>
        </symbol>
        <symbol id="icon-map-pin" viewBox="0 0 32 32">
            <path fill="#fff" style="fill: var(--color1, #fff)"
                d="M16 8.25c-0.939 0-1.858 0.279-2.639 0.8s-1.39 1.264-1.749 2.132c-0.36 0.868-0.454 1.823-0.27 2.744s0.636 1.768 1.3 2.432c0.664 0.664 1.511 1.117 2.432 1.3s1.876 0.089 2.744-0.27c0.868-0.36 1.61-0.968 2.132-1.749s0.801-1.7 0.801-2.639c0-1.26-0.5-2.468-1.391-3.359s-2.099-1.391-3.359-1.391zM16 16.25c-0.643 0-1.271-0.191-1.806-0.548s-0.951-0.865-1.197-1.458c-0.246-0.594-0.31-1.247-0.185-1.878s0.435-1.21 0.889-1.664c0.454-0.455 1.034-0.764 1.664-0.889s1.284-0.061 1.878 0.185c0.594 0.246 1.101 0.663 1.458 1.197s0.548 1.163 0.548 1.806c0 0.862-0.342 1.689-0.952 2.298s-1.436 0.952-2.298 0.952zM16 2.25c-2.85 0.003-5.582 1.137-7.598 3.152s-3.149 4.748-3.152 7.598c0 3.864 1.793 7.968 5.184 11.868 1.531 1.769 3.253 3.362 5.136 4.75 0.126 0.088 0.276 0.136 0.43 0.136s0.304-0.047 0.43-0.136c1.883-1.388 3.606-2.981 5.136-4.75 3.391-3.9 5.184-8 5.184-11.868-0.003-2.85-1.137-5.582-3.152-7.598s-4.748-3.149-7.598-3.152zM16 28.064c-1.875-1.448-9.25-7.611-9.25-15.064 0-2.453 0.975-4.806 2.709-6.541s4.087-2.709 6.541-2.709c2.453 0 4.806 0.975 6.541 2.709s2.709 4.087 2.709 6.541c0 7.452-7.375 13.616-9.25 15.064z">
            </path>
        </symbol>
        <symbol id="icon-email" viewBox="0 0 32 32">
            <path fill="#fff" style="fill: var(--color1, #fff)"
                d="M28.416 11.375l-12-8c-0.123-0.082-0.268-0.126-0.416-0.126s-0.293 0.044-0.416 0.126l-12 8c-0.103 0.069-0.187 0.162-0.245 0.271s-0.089 0.231-0.088 0.354v13c0 0.464 0.184 0.909 0.513 1.237s0.773 0.513 1.237 0.513h22c0.464 0 0.909-0.184 1.237-0.513s0.513-0.773 0.513-1.237v-13c0-0.124-0.030-0.245-0.088-0.354s-0.143-0.202-0.245-0.271zM16 4.901l10.679 7.125-8.737 6.224h-3.883l-8.737-6.229 10.679-7.12zM27 25.25h-22c-0.066 0-0.13-0.026-0.177-0.073s-0.073-0.11-0.073-0.177v-11.544l8.632 6.155c0.128 0.090 0.28 0.139 0.436 0.139h4.363c0.156-0 0.309-0.049 0.436-0.139l8.632-6.155v11.544c0 0.066-0.026 0.13-0.073 0.177s-0.11 0.073-0.177 0.073z">
            </path>
        </symbol>
        <symbol id="icon-call-white-outline" viewBox="0 0 32 32">
            <path fill="#fff" style="fill: var(--color1, #fff)"
                d="M27.699 20.038l-5.905-2.646c-0.268-0.115-0.559-0.161-0.849-0.134s-0.569 0.125-0.811 0.287c-0.025 0.016-0.048 0.033-0.070 0.052l-3.086 2.625c-0.032 0.017-0.068 0.027-0.104 0.028s-0.073-0.006-0.106-0.021c-1.984-0.957-4.039-3-5-4.956-0.016-0.033-0.024-0.069-0.024-0.105s0.008-0.072 0.024-0.105l2.634-3.125c0.019-0.023 0.036-0.047 0.052-0.073 0.159-0.243 0.255-0.522 0.28-0.812s-0.024-0.581-0.14-0.847l-2.628-5.895c-0.149-0.348-0.407-0.638-0.735-0.827s-0.709-0.266-1.085-0.22c-1.633 0.215-3.133 1.017-4.218 2.257s-1.682 2.832-1.678 4.48c0 9.788 7.962 17.75 17.75 17.75 1.647 0.003 3.24-0.594 4.479-1.679s2.042-2.584 2.257-4.218c0.046-0.374-0.031-0.753-0.218-1.080s-0.474-0.585-0.82-0.736zM22 26.25c-8.96 0-16.25-7.29-16.25-16.25-0.004-1.283 0.459-2.523 1.302-3.489s2.010-1.592 3.281-1.761h0.029c0.050 0.001 0.099 0.017 0.14 0.046s0.072 0.070 0.090 0.117l2.638 5.889c0.015 0.033 0.023 0.068 0.023 0.104s-0.008 0.072-0.023 0.104l-2.639 3.132c-0.020 0.022-0.038 0.046-0.054 0.071-0.165 0.252-0.262 0.543-0.282 0.843s0.038 0.601 0.169 0.873c1.109 2.27 3.396 4.54 5.691 5.649 0.273 0.13 0.575 0.186 0.877 0.164s0.593-0.122 0.844-0.289c0.024-0.016 0.048-0.034 0.070-0.052l3.085-2.625c0.030-0.016 0.064-0.026 0.099-0.028s0.069 0.003 0.101 0.016l5.906 2.646c0.048 0.021 0.089 0.056 0.116 0.101s0.040 0.097 0.035 0.149c-0.168 1.272-0.793 2.439-1.759 3.284s-2.206 1.308-3.489 1.305z">
            </path>
        </symbol>
        <symbol id="icon-call-yellow-outline" viewBox="0 0 32 32">
            <path fill="#fdc70d" style="fill: var(--color2, #fdc70d)"
                d="M27.699 20.038l-5.905-2.646c-0.267-0.115-0.559-0.161-0.849-0.134s-0.568 0.125-0.811 0.287c-0.025 0.016-0.048 0.033-0.070 0.052l-3.086 2.625c-0.032 0.017-0.068 0.027-0.104 0.029s-0.073-0.006-0.106-0.021c-1.984-0.958-4.039-3-5-4.956-0.016-0.033-0.024-0.069-0.024-0.105s0.008-0.072 0.024-0.105l2.634-3.125c0.019-0.023 0.036-0.047 0.053-0.072 0.159-0.243 0.255-0.522 0.28-0.812s-0.024-0.581-0.14-0.847l-2.627-5.895c-0.149-0.348-0.407-0.638-0.735-0.827s-0.709-0.266-1.085-0.22c-1.633 0.215-3.133 1.017-4.218 2.257s-1.682 2.832-1.678 4.48c0 9.787 7.963 17.75 17.75 17.75 1.647 0.003 3.24-0.593 4.479-1.679s2.042-2.584 2.257-4.218c0.046-0.374-0.031-0.753-0.218-1.080s-0.474-0.585-0.82-0.736zM22 26.25c-8.96 0-16.25-7.29-16.25-16.25-0.004-1.283 0.459-2.523 1.302-3.489s2.010-1.592 3.281-1.761h0.029c0.050 0.001 0.099 0.017 0.14 0.046s0.072 0.070 0.090 0.117l2.637 5.889c0.015 0.033 0.023 0.068 0.023 0.104s-0.008 0.072-0.023 0.104l-2.639 3.133c-0.020 0.022-0.038 0.046-0.054 0.071-0.165 0.252-0.262 0.543-0.282 0.843s0.038 0.601 0.169 0.873c1.109 2.27 3.396 4.54 5.691 5.649 0.273 0.13 0.575 0.186 0.877 0.165s0.592-0.122 0.844-0.289c0.024-0.016 0.048-0.034 0.070-0.052l3.085-2.625c0.030-0.016 0.064-0.026 0.099-0.028s0.069 0.003 0.101 0.016l5.906 2.646c0.048 0.020 0.089 0.056 0.116 0.101s0.039 0.097 0.035 0.149c-0.168 1.272-0.793 2.439-1.759 3.284s-2.206 1.308-3.489 1.305z">
            </path>
        </symbol>
        <symbol id="icon-address-book" viewBox="0 0 32 32">
            <path fill="#fdc70d" style="fill: var(--color2, #fdc70d)"
                d="M19.889 17.766c0.788-0.604 1.367-1.439 1.656-2.389s0.273-1.966-0.046-2.907c-0.319-0.94-0.924-1.757-1.731-2.335s-1.775-0.889-2.768-0.889-1.961 0.311-2.768 0.889c-0.807 0.578-1.412 1.395-1.731 2.335s-0.335 1.957-0.046 2.907c0.289 0.95 0.868 1.785 1.656 2.389-1.479 0.552-2.767 1.519-3.711 2.784-0.119 0.159-0.171 0.359-0.142 0.556s0.133 0.375 0.292 0.494c0.159 0.119 0.359 0.171 0.556 0.142s0.375-0.133 0.494-0.292c0.629-0.838 1.444-1.519 2.381-1.988s1.971-0.713 3.019-0.713 2.081 0.244 3.019 0.713c0.937 0.469 1.752 1.149 2.381 1.988 0.119 0.159 0.297 0.264 0.494 0.292s0.397-0.023 0.556-0.142 0.264-0.297 0.292-0.494c0.028-0.197-0.023-0.397-0.142-0.556-0.944-1.265-2.233-2.231-3.711-2.784zM13.75 14c0-0.643 0.191-1.271 0.548-1.806s0.865-0.951 1.459-1.197c0.594-0.246 1.247-0.31 1.878-0.185s1.21 0.435 1.664 0.889c0.455 0.455 0.764 1.034 0.889 1.664s0.061 1.284-0.185 1.878c-0.246 0.594-0.663 1.101-1.197 1.458s-1.163 0.548-1.806 0.548c-0.862 0-1.689-0.342-2.298-0.952s-0.952-1.436-0.952-2.298zM26 3.25h-18c-0.464 0-0.909 0.184-1.237 0.513s-0.513 0.773-0.513 1.237v3.25h-2.25c-0.199 0-0.39 0.079-0.53 0.22s-0.22 0.331-0.22 0.53c0 0.199 0.079 0.39 0.22 0.53s0.331 0.22 0.53 0.22h2.25v5.5h-2.25c-0.199 0-0.39 0.079-0.53 0.22s-0.22 0.331-0.22 0.53c0 0.199 0.079 0.39 0.22 0.53s0.331 0.22 0.53 0.22h2.25v5.5h-2.25c-0.199 0-0.39 0.079-0.53 0.22s-0.22 0.331-0.22 0.53c0 0.199 0.079 0.39 0.22 0.53s0.331 0.22 0.53 0.22h2.25v3.25c0 0.464 0.184 0.909 0.513 1.237s0.773 0.513 1.237 0.513h18c0.464 0 0.909-0.184 1.237-0.513s0.513-0.773 0.513-1.237v-22c0-0.464-0.184-0.909-0.513-1.237s-0.773-0.513-1.237-0.513zM26.25 27c0 0.066-0.026 0.13-0.073 0.177s-0.11 0.073-0.177 0.073h-18c-0.066 0-0.13-0.026-0.177-0.073s-0.073-0.11-0.073-0.177v-22c0-0.066 0.026-0.13 0.073-0.177s0.11-0.073 0.177-0.073h18c0.066 0 0.13 0.026 0.177 0.073s0.073 0.11 0.073 0.177v22z">
            </path>
        </symbol>
    </defs>
</svg>