<svg width="18" height="18" viewBox="0 0 18 18" fill="none" xmlns="http://www.w3.org/2000/svg">
<g id="call 1">
<g clip-path="url(#clip0_405_101)">
<g id="Group">
<g id="Group_2">
<path id="Vector" d="M16.5557 11.8149C15.4537 11.8149 14.3716 11.6426 13.3462 11.3037C12.9421 11.1659 12.4635 11.2406 12.1321 11.439C11.9777 11.5314 11.8473 11.659 11.7037 11.7674C10.6011 12.5997 9.08089 12.7599 7.98604 11.9174C7.31279 11.3994 6.72979 10.8287 6.20443 10.1729C5.2634 8.99808 5.44471 7.33621 6.34959 6.13336C6.73486 5.74861 6.87305 5.18658 6.70748 4.65923C6.36717 3.62845 6.1943 2.54691 6.1943 1.44441C6.19434 0.647953 5.54639 0 4.74998 0H1.44436C0.647953 0 0 0.647953 0 1.44436C0 10.5733 7.42678 18 16.5557 18C17.3521 18 18 17.352 18 16.5556V13.2593C18 12.4629 17.352 11.8149 16.5557 11.8149Z" fill="url(#paint0_linear_405_101)"/>
</g>
</g>
</g>
</g>
<defs>
<linearGradient id="paint0_linear_405_101" x1="0" y1="0" x2="19.3406" y2="1.57883" gradientUnits="userSpaceOnUse">
<stop stop-color="#FDC70D"/>
<stop offset="1" stop-color="#FDAB0D"/>
</linearGradient>
<clipPath id="clip0_405_101">
<rect width="18" height="18" fill="white"/>
</clipPath>
</defs>
</svg>
